<svg width="191" height="40" viewBox="0 0 191 40" fill="none" xmlns="http://www.w3.org/2000/svg">
<path d="M47.8 13.152C49.576 13.152 51.128 13.504 52.456 14.208C53.784 14.912 54.808 15.904 55.528 17.184C56.264 18.448 56.632 19.912 56.632 21.576C56.632 23.224 56.264 24.688 55.528 25.968C54.808 27.248 53.776 28.24 52.432 28.944C51.104 29.648 49.56 30 47.8 30H41.488V13.152H47.8ZM47.536 26.448C49.088 26.448 50.296 26.024 51.16 25.176C52.024 24.328 52.456 23.128 52.456 21.576C52.456 20.024 52.024 18.816 51.16 17.952C50.296 17.088 49.088 16.656 47.536 16.656H45.592V26.448H47.536ZM66.8935 30.168C65.3095 30.168 63.8535 29.8 62.5255 29.064C61.2135 28.328 60.1655 27.304 59.3815 25.992C58.6135 24.664 58.2295 23.176 58.2295 21.528C58.2295 19.88 58.6135 18.4 59.3815 17.088C60.1655 15.776 61.2135 14.752 62.5255 14.016C63.8535 13.28 65.3095 12.912 66.8935 12.912C68.4775 12.912 69.9255 13.28 71.2375 14.016C72.5655 14.752 73.6055 15.776 74.3575 17.088C75.1255 18.4 75.5095 19.88 75.5095 21.528C75.5095 23.176 75.1255 24.664 74.3575 25.992C73.5895 27.304 72.5495 28.328 71.2375 29.064C69.9255 29.8 68.4775 30.168 66.8935 30.168ZM66.8935 26.424C68.2375 26.424 69.3095 25.976 70.1095 25.08C70.9255 24.184 71.3335 23 71.3335 21.528C71.3335 20.04 70.9255 18.856 70.1095 17.976C69.3095 17.08 68.2375 16.632 66.8935 16.632C65.5335 16.632 64.4455 17.072 63.6295 17.952C62.8295 18.832 62.4295 20.024 62.4295 21.528C62.4295 23.016 62.8295 24.208 63.6295 25.104C64.4455 25.984 65.5335 26.424 66.8935 26.424ZM85.7607 30.168C84.1767 30.168 82.7207 29.8 81.3927 29.064C80.0807 28.328 79.0327 27.304 78.2487 25.992C77.4807 24.664 77.0967 23.176 77.0967 21.528C77.0967 19.88 77.4807 18.4 78.2487 17.088C79.0327 15.776 80.0807 14.752 81.3927 14.016C82.7207 13.28 84.1767 12.912 85.7607 12.912C87.3447 12.912 88.7927 13.28 90.1047 14.016C91.4327 14.752 92.4727 15.776 93.2247 17.088C93.9927 18.4 94.3767 19.88 94.3767 21.528C94.3767 23.176 93.9927 24.664 93.2247 25.992C92.4567 27.304 91.4167 28.328 90.1047 29.064C88.7927 29.8 87.3447 30.168 85.7607 30.168ZM85.7607 26.424C87.1047 26.424 88.1767 25.976 88.9767 25.08C89.7927 24.184 90.2007 23 90.2007 21.528C90.2007 20.04 89.7927 18.856 88.9767 17.976C88.1767 17.08 87.1047 16.632 85.7607 16.632C84.4007 16.632 83.3127 17.072 82.4967 17.952C81.6967 18.832 81.2967 20.024 81.2967 21.528C81.2967 23.016 81.6967 24.208 82.4967 25.104C83.3127 25.984 84.4007 26.424 85.7607 26.424ZM105.252 30L101.748 23.64H100.764V30H96.6599V13.152H103.548C104.876 13.152 106.004 13.384 106.932 13.848C107.876 14.312 108.58 14.952 109.044 15.768C109.508 16.568 109.74 17.464 109.74 18.456C109.74 19.576 109.42 20.576 108.78 21.456C108.156 22.336 107.228 22.96 105.996 23.328L109.884 30H105.252ZM100.764 20.736H103.308C104.06 20.736 104.62 20.552 104.988 20.184C105.372 19.816 105.564 19.296 105.564 18.624C105.564 17.984 105.372 17.48 104.988 17.112C104.62 16.744 104.06 16.56 103.308 16.56H100.764V20.736ZM123.284 13.152V16.44H116.42V19.992H121.556V23.184H116.42V30H112.316V13.152H123.284ZM134.033 30L130.529 23.64H129.545V30H125.441V13.152H132.329C133.657 13.152 134.785 13.384 135.713 13.848C136.657 14.312 137.361 14.952 137.825 15.768C138.289 16.568 138.521 17.464 138.521 18.456C138.521 19.576 138.201 20.576 137.561 21.456C136.937 22.336 136.009 22.96 134.777 23.328L138.665 30H134.033ZM129.545 20.736H132.089C132.841 20.736 133.401 20.552 133.769 20.184C134.153 19.816 134.345 19.296 134.345 18.624C134.345 17.984 134.153 17.48 133.769 17.112C133.401 16.744 132.841 16.56 132.089 16.56H129.545V20.736ZM149.065 30.168C147.481 30.168 146.025 29.8 144.697 29.064C143.385 28.328 142.337 27.304 141.553 25.992C140.785 24.664 140.401 23.176 140.401 21.528C140.401 19.88 140.785 18.4 141.553 17.088C142.337 15.776 143.385 14.752 144.697 14.016C146.025 13.28 147.481 12.912 149.065 12.912C150.649 12.912 152.097 13.28 153.409 14.016C154.737 14.752 155.777 15.776 156.529 17.088C157.297 18.4 157.681 19.88 157.681 21.528C157.681 23.176 157.297 24.664 156.529 25.992C155.761 27.304 154.721 28.328 153.409 29.064C152.097 29.8 150.649 30.168 149.065 30.168ZM149.065 26.424C150.409 26.424 151.481 25.976 152.281 25.08C153.097 24.184 153.505 23 153.505 21.528C153.505 20.04 153.097 18.856 152.281 17.976C151.481 17.08 150.409 16.632 149.065 16.632C147.705 16.632 146.617 17.072 145.801 17.952C145.001 18.832 144.601 20.024 144.601 21.528C144.601 23.016 145.001 24.208 145.801 25.104C146.617 25.984 147.705 26.424 149.065 26.424ZM175.037 30H170.933L164.069 19.608V30H159.965V13.152H164.069L170.933 23.592V13.152H175.037V30ZM190.131 13.152V16.44H185.667V30H181.563V16.44H177.099V13.152H190.131Z" fill="#3F3D56"/>
<rect x="2" y="2" width="29" height="36" rx="4" stroke="#3F3D56" stroke-width="4"/>
<path d="M12.274 20C12.274 21.1226 11.324 22.0641 10.1127 22.0641C8.90136 22.0641 7.95142 21.1226 7.95142 20C7.95142 18.8774 8.90136 17.9359 10.1127 17.9359C11.324 17.9359 12.274 18.8774 12.274 20Z" fill="#3F3D56" stroke="#3F3D56"/>
<path d="M10.113 22.0513V26.1539" stroke="#3F3D56" stroke-width="2"/>
</svg>
