<svg width="388" height="381" viewBox="0 0 388 381" fill="none" xmlns="http://www.w3.org/2000/svg">
<g filter="url(#filter0_d)">
<rect x="20" y="21" width="362" height="354.166" rx="10" fill="#E5E7F9"/>
<ellipse cx="65" cy="64.4755" rx="10" ry="10.6038" fill="#D0B89C"/>
<ellipse cx="99" cy="64.4755" rx="10" ry="10.6038" fill="#D0B89C"/>
<ellipse cx="133" cy="64.4755" rx="10" ry="10.6038" fill="#D0B89C"/>
<ellipse cx="167" cy="64.4755" rx="10" ry="10.6038" fill="#D0B89C"/>
<ellipse cx="201" cy="64.4755" rx="10" ry="10.6038" fill="#D0B89C"/>
<ellipse cx="235" cy="64.4755" rx="10" ry="10.6038" fill="#D0B89C"/>
<ellipse cx="269" cy="64.4755" rx="10" ry="10.6038" fill="#D0B89C"/>
<ellipse cx="303" cy="64.4755" rx="10" ry="10.6038" fill="#D0B89C"/>
<ellipse cx="337" cy="64.4755" rx="10" ry="10.6038" fill="#D0B89C"/>
<ellipse cx="65" cy="331.691" rx="10" ry="10.6038" fill="#D0B89C"/>
<ellipse cx="99" cy="331.691" rx="10" ry="10.6038" fill="#D0B89C"/>
<ellipse cx="133" cy="331.691" rx="10" ry="10.6038" fill="#D0B89C"/>
<ellipse cx="167" cy="331.691" rx="10" ry="10.6038" fill="#D0B89C"/>
<ellipse cx="201" cy="331.691" rx="10" ry="10.6038" fill="#D0B89C"/>
<ellipse cx="235" cy="331.691" rx="10" ry="10.6038" fill="#D0B89C"/>
<ellipse cx="269" cy="331.691" rx="10" ry="10.6038" fill="#D0B89C"/>
<ellipse cx="303" cy="331.691" rx="10" ry="10.6038" fill="#D0B89C"/>
<ellipse cx="337" cy="331.691" rx="10" ry="10.6038" fill="#D0B89C"/>
<ellipse cx="65" cy="293.517" rx="10" ry="10.6038" fill="#D0B89C"/>
<ellipse cx="99" cy="293.517" rx="10" ry="10.6038" fill="#D0B89C"/>
<ellipse cx="133" cy="293.517" rx="10" ry="10.6038" fill="#D0B89C"/>
<ellipse cx="167" cy="293.517" rx="10" ry="10.6038" fill="#D0B89C"/>
<ellipse cx="201" cy="293.517" rx="10" ry="10.6038" fill="#D0B89C"/>
<ellipse cx="235" cy="293.517" rx="10" ry="10.6038" fill="#D0B89C"/>
<ellipse cx="269" cy="293.517" rx="10" ry="10.6038" fill="#D0B89C"/>
<ellipse cx="303" cy="293.517" rx="10" ry="10.6038" fill="#D0B89C"/>
<ellipse cx="337" cy="293.517" rx="10" ry="10.6038" fill="#D0B89C"/>
<ellipse cx="65" cy="255.343" rx="10" ry="10.6038" fill="#D0B89C"/>
<ellipse cx="99" cy="255.343" rx="10" ry="10.6038" fill="#D0B89C"/>
<ellipse cx="133" cy="255.343" rx="10" ry="10.6038" fill="#D0B89C"/>
<ellipse cx="167" cy="255.343" rx="10" ry="10.6038" fill="#D0B89C"/>
<ellipse cx="201" cy="255.343" rx="10" ry="10.6038" fill="#D0B89C"/>
<ellipse cx="235" cy="255.343" rx="10" ry="10.6038" fill="#D0B89C"/>
<ellipse cx="269" cy="255.343" rx="10" ry="10.6038" fill="#D0B89C"/>
<ellipse cx="303" cy="255.343" rx="10" ry="10.6038" fill="#D0B89C"/>
<ellipse cx="337" cy="255.343" rx="10" ry="10.6038" fill="#D0B89C"/>
<ellipse cx="65" cy="217.17" rx="10" ry="10.6038" fill="#D0B89C"/>
<ellipse cx="99" cy="217.17" rx="10" ry="10.6038" fill="#D0B89C"/>
<ellipse cx="133" cy="217.17" rx="10" ry="10.6038" fill="#D0B89C"/>
<ellipse cx="167" cy="217.17" rx="10" ry="10.6038" fill="#D0B89C"/>
<ellipse cx="201" cy="217.17" rx="10" ry="10.6038" fill="#D0B89C"/>
<ellipse cx="235" cy="217.17" rx="10" ry="10.6038" fill="#D0B89C"/>
<ellipse cx="269" cy="217.17" rx="10" ry="10.6038" fill="#D0B89C"/>
<ellipse cx="303" cy="217.17" rx="10" ry="10.6038" fill="#D0B89C"/>
<ellipse cx="337" cy="217.17" rx="10" ry="10.6038" fill="#D0B89C"/>
<ellipse cx="65" cy="178.996" rx="10" ry="10.6038" fill="#D0B89C"/>
<ellipse cx="99" cy="178.996" rx="10" ry="10.6038" fill="#D0B89C"/>
<ellipse cx="133" cy="178.996" rx="10" ry="10.6038" fill="#D0B89C"/>
<ellipse cx="167" cy="178.996" rx="10" ry="10.6038" fill="#D0B89C"/>
<ellipse cx="201" cy="178.996" rx="10" ry="10.6038" fill="#D0B89C"/>
<ellipse cx="235" cy="178.996" rx="10" ry="10.6038" fill="#D0B89C"/>
<ellipse cx="269" cy="178.996" rx="10" ry="10.6038" fill="#D0B89C"/>
<ellipse cx="303" cy="178.996" rx="10" ry="10.6038" fill="#D0B89C"/>
<ellipse cx="337" cy="178.996" rx="10" ry="10.6038" fill="#D0B89C"/>
<ellipse cx="65" cy="102.649" rx="10" ry="10.6038" fill="#D0B89C"/>
<ellipse cx="99" cy="102.649" rx="10" ry="10.6038" fill="#D0B89C"/>
<ellipse cx="133" cy="102.649" rx="10" ry="10.6038" fill="#D0B89C"/>
<ellipse cx="167" cy="102.649" rx="10" ry="10.6038" fill="#D0B89C"/>
<ellipse cx="201" cy="102.649" rx="10" ry="10.6038" fill="#D0B89C"/>
<ellipse cx="235" cy="102.649" rx="10" ry="10.6038" fill="#D0B89C"/>
<ellipse cx="269" cy="102.649" rx="10" ry="10.6038" fill="#D0B89C"/>
<ellipse cx="303" cy="102.649" rx="10" ry="10.6038" fill="#D0B89C"/>
<ellipse cx="337" cy="102.649" rx="10" ry="10.6038" fill="#D0B89C"/>
<ellipse cx="65" cy="140.823" rx="10" ry="10.6038" fill="#D0B89C"/>
<ellipse cx="99" cy="140.823" rx="10" ry="10.6038" fill="#D0B89C"/>
<ellipse cx="133" cy="140.823" rx="10" ry="10.6038" fill="#D0B89C"/>
<ellipse cx="167" cy="140.823" rx="10" ry="10.6038" fill="#D0B89C"/>
<ellipse cx="201" cy="140.823" rx="10" ry="10.6038" fill="#D0B89C"/>
<ellipse cx="235" cy="140.823" rx="10" ry="10.6038" fill="#D0B89C"/>
<ellipse cx="269" cy="140.823" rx="10" ry="10.6038" fill="#D0B89C"/>
<ellipse cx="303" cy="140.823" rx="10" ry="10.6038" fill="#D0B89C"/>
<ellipse cx="337" cy="140.823" rx="10" ry="10.6038" fill="#D0B89C"/>
</g>
<defs>
<filter id="filter0_d" x="0" y="0" width="388" height="380.166" filterUnits="userSpaceOnUse" color-interpolation-filters="sRGB">
<feFlood flood-opacity="0" result="BackgroundImageFix"/>
<feColorMatrix in="SourceAlpha" type="matrix" values="0 0 0 0 0 0 0 0 0 0 0 0 0 0 0 0 0 0 127 0"/>
<feOffset dx="-7" dy="-8"/>
<feGaussianBlur stdDeviation="6.5"/>
<feColorMatrix type="matrix" values="0 0 0 0 0 0 0 0 0 0 0 0 0 0 0 0 0 0 0.25 0"/>
<feBlend mode="normal" in2="BackgroundImageFix" result="effect1_dropShadow"/>
<feBlend mode="normal" in="SourceGraphic" in2="effect1_dropShadow" result="shape"/>
</filter>
</defs>
</svg>
