<svg width="523" height="443" viewBox="0 0 523 443" fill="none" xmlns="http://www.w3.org/2000/svg">
<g clip-path="url(#clip0)">
<path d="M297.799 216.614C309.567 216.614 319.107 206.208 319.107 193.373C319.107 180.537 309.567 170.132 297.799 170.132C286.03 170.132 276.49 180.537 276.49 193.373C276.49 206.208 286.03 216.614 297.799 216.614Z" fill="#E6E6E6"/>
<path d="M350.022 223.239L327.754 198.951C329.461 196.056 330.618 192.816 331.156 189.424C331.694 186.031 331.602 182.556 330.886 179.203C330.169 175.851 328.844 172.689 326.987 169.905C325.13 167.121 322.779 164.773 320.075 162.998C314.982 159.68 308.933 158.569 303.125 159.884C297.317 161.2 292.174 164.847 288.714 170.103C285.53 174.971 284.001 180.897 284.39 186.862C284.778 192.827 287.06 198.457 290.842 202.786C294.624 207.115 299.671 209.871 305.115 210.582C310.559 211.292 316.059 209.911 320.671 206.677L342.939 230.965C343.878 231.988 345.152 232.563 346.48 232.563C347.808 232.562 349.081 231.987 350.02 230.962C350.959 229.938 351.487 228.549 351.487 227.101C351.488 225.653 350.961 224.263 350.022 223.239ZM319.839 198.045C317.08 201.054 313.45 202.927 309.566 203.344C305.683 203.761 301.787 202.697 298.543 200.333C295.298 197.968 292.906 194.45 291.773 190.377C290.64 186.305 290.837 181.93 292.331 177.998C293.824 174.066 296.521 170.82 299.962 168.814C303.404 166.808 307.376 166.165 311.203 166.995C315.03 167.825 318.475 170.077 320.951 173.367C323.426 176.657 324.779 180.781 324.779 185.037C324.782 187.453 324.347 189.846 323.499 192.079C322.652 194.311 321.408 196.338 319.839 198.045Z" fill="#3F3D56"/>
<path d="M511.441 259.064C568.389 327.753 403.306 426.743 269.916 426.743C136.525 426.743 44.2398 350.043 28.3907 259.064C-10.0377 38.4694 355.81 -101.739 269.916 91.3838C144.715 372.883 466.593 204.97 511.441 259.064Z" fill="#E6E6E6"/>
<path d="M485.889 275.32C542.837 344.009 377.755 443 244.364 443C110.974 443 18.6882 366.3 2.83923 275.32C-35.5892 54.7259 330.259 -85.4826 244.364 107.64C119.163 389.139 441.042 221.226 485.889 275.32Z" fill="#3F3D56"/>
<path d="M79.632 114.275C39.672 112.356 8.68872 102.955 9.09576 92.872C9.3398 86.827 20.6489 81.9661 40.1231 79.5361C40.1928 79.5269 40.2635 79.5328 40.3311 79.5535C40.3987 79.5742 40.4618 79.6093 40.5169 79.6567C40.572 79.7041 40.618 79.763 40.6522 79.8299C40.6863 79.8968 40.708 79.9704 40.716 80.0465C40.724 80.1226 40.7181 80.1996 40.6987 80.2732C40.6792 80.3468 40.6466 80.4154 40.6028 80.4752C40.5589 80.535 40.5046 80.5847 40.4431 80.6215C40.3815 80.6584 40.3139 80.6815 40.2441 80.6897C21.8994 82.979 10.3716 87.6666 10.1594 92.9231C9.79127 102.041 41.6272 111.288 79.6788 113.115C117.73 114.942 150.188 108.783 150.556 99.6654C150.77 94.3868 139.592 88.596 121.386 84.5535C121.318 84.5385 121.252 84.5088 121.194 84.4662C121.136 84.4236 121.086 84.3689 121.048 84.3053C121.009 84.2416 120.982 84.1703 120.969 84.0953C120.955 84.0203 120.955 83.9432 120.969 83.8683C120.983 83.7935 121.011 83.7224 121.05 83.6591C121.089 83.5958 121.14 83.5416 121.198 83.4995C121.256 83.4574 121.322 83.4284 121.391 83.414C121.46 83.3996 121.53 83.4001 121.599 83.4156C140.923 87.7065 151.865 93.6479 151.62 99.7165C151.213 109.799 119.592 116.194 79.632 114.275Z" fill="#D6974D"/>
<path d="M44.1418 115.964C47.4847 122.89 52.4367 128.737 58.5023 132.921C64.5679 137.104 71.5343 139.477 78.7047 139.801C85.875 140.126 92.9978 138.391 99.3604 134.77C105.723 131.15 111.102 125.77 114.96 119.17C91.3178 119.517 67.6761 118.447 44.1418 115.964Z" fill="#D6974D"/>
<path d="M119.38 106.957C121.392 100.375 121.972 93.3732 121.073 86.5049C120.175 79.6366 117.823 73.0907 114.204 67.3851C110.585 61.6795 105.798 56.9708 100.223 53.6319C94.6466 50.293 88.4347 48.4153 82.0784 48.1476C75.7221 47.8799 69.3959 49.2294 63.6005 52.0894C57.8051 54.9494 52.6996 59.2414 48.688 64.6256C44.6764 70.0098 41.8688 76.3385 40.4875 83.1108C39.1062 89.8831 39.1891 96.9131 40.7296 103.644C66.7047 108.454 93.1422 109.567 119.38 106.957Z" fill="#D6974D"/>
<path d="M89.8739 76.987C92.5199 76.987 94.6648 74.6475 94.6648 71.7616C94.6648 68.8758 92.5199 66.5363 89.8739 66.5363C87.228 66.5363 85.083 68.8758 85.083 71.7616C85.083 74.6475 87.228 76.987 89.8739 76.987Z" fill="white"/>
<path d="M65.2168 97.3021C69.6267 97.3021 73.2016 93.4031 73.2016 88.5933C73.2016 83.7835 69.6267 79.8844 65.2168 79.8844C60.8069 79.8844 57.2319 83.7835 57.2319 88.5933C57.2319 93.4031 60.8069 97.3021 65.2168 97.3021Z" fill="white"/>
<path d="M185.73 88.7713C188.67 88.7713 191.053 86.1719 191.053 82.9655C191.053 79.7591 188.67 77.1597 185.73 77.1597C182.79 77.1597 180.407 79.7591 180.407 82.9655C180.407 86.1719 182.79 88.7713 185.73 88.7713Z" fill="#D6974D"/>
<path d="M65.4249 266.433C67.1889 266.433 68.6189 264.873 68.6189 262.949C68.6189 261.025 67.1889 259.465 65.4249 259.465C63.661 259.465 62.231 261.025 62.231 262.949C62.231 264.873 63.661 266.433 65.4249 266.433Z" fill="#E6E6E6"/>
<path d="M289 386.035C290.764 386.035 292.194 384.475 292.194 382.551C292.194 380.627 290.764 379.068 289 379.068C287.236 379.068 285.806 380.627 285.806 382.551C285.806 384.475 287.236 386.035 289 386.035Z" fill="#E6E6E6"/>
<path d="M80.8624 199.084C81.7444 199.084 82.4594 198.304 82.4594 197.342C82.4594 196.38 81.7444 195.6 80.8624 195.6C79.9804 195.6 79.2654 196.38 79.2654 197.342C79.2654 198.304 79.9804 199.084 80.8624 199.084Z" fill="#E6E6E6"/>
<path d="M212.878 329.137C213.76 329.137 214.475 328.357 214.475 327.395C214.475 326.433 213.76 325.653 212.878 325.653C211.996 325.653 211.281 326.433 211.281 327.395C211.281 328.357 211.996 329.137 212.878 329.137Z" fill="#E6E6E6"/>
<path d="M452.956 312.299C453.838 312.299 454.553 311.52 454.553 310.558C454.553 309.596 453.838 308.816 452.956 308.816C452.074 308.816 451.359 309.596 451.359 310.558C451.359 311.52 452.074 312.299 452.956 312.299Z" fill="#E6E6E6"/>
<path d="M377.898 363.972C378.78 363.972 379.495 363.192 379.495 362.23C379.495 361.268 378.78 360.489 377.898 360.489C377.016 360.489 376.301 361.268 376.301 362.23C376.301 363.192 377.016 363.972 377.898 363.972Z" fill="#E6E6E6"/>
<path d="M299.647 301.268C300.529 301.268 301.244 300.488 301.244 299.526C301.244 298.564 300.529 297.785 299.647 297.785C298.765 297.785 298.05 298.564 298.05 299.526C298.05 300.488 298.765 301.268 299.647 301.268Z" fill="#E6E6E6"/>
<path d="M198.505 129.413C199.387 129.413 200.102 128.633 200.102 127.671C200.102 126.709 199.387 125.929 198.505 125.929C197.623 125.929 196.908 126.709 196.908 127.671C196.908 128.633 197.623 129.413 198.505 129.413Z" fill="#E6E6E6"/>
<path d="M211.281 43.4853C212.163 43.4853 212.878 42.7054 212.878 41.7435C212.878 40.7815 212.163 40.0016 211.281 40.0016C210.399 40.0016 209.684 40.7815 209.684 41.7435C209.684 42.7054 210.399 43.4853 211.281 43.4853Z" fill="#E6E6E6"/>
<path d="M203.829 405.194C204.711 405.194 205.426 404.414 205.426 403.452C205.426 402.49 204.711 401.711 203.829 401.711C202.947 401.711 202.232 402.49 202.232 403.452C202.232 404.414 202.947 405.194 203.829 405.194Z" fill="#E6E6E6"/>
<path d="M125.045 368.617C125.927 368.617 126.642 367.837 126.642 366.875C126.642 365.913 125.927 365.133 125.045 365.133C124.163 365.133 123.448 365.913 123.448 366.875C123.448 367.837 124.163 368.617 125.045 368.617Z" fill="#E6E6E6"/>
<path d="M374.704 305.913C375.586 305.913 376.301 305.133 376.301 304.171C376.301 303.209 375.586 302.429 374.704 302.429C373.822 302.429 373.107 303.209 373.107 304.171C373.107 305.133 373.822 305.913 374.704 305.913Z" fill="#E6E6E6"/>
<path d="M78.9826 135.742C81.6285 135.742 83.7735 133.402 83.7735 130.516C83.7735 127.63 81.6285 125.291 78.9826 125.291C76.3366 125.291 74.1917 127.63 74.1917 130.516C74.1917 133.402 76.3366 135.742 78.9826 135.742Z" fill="white"/>
<path d="M187.327 210.696C187.327 226.302 165.204 262.668 158.739 272.962C158.544 273.274 158.282 273.528 157.976 273.704C157.671 273.88 157.33 273.972 156.984 273.972C156.639 273.972 156.298 273.88 155.993 273.704C155.687 273.528 155.425 273.274 155.23 272.962C148.765 262.668 126.642 226.302 126.642 210.696C126.642 206.35 127.427 202.047 128.952 198.031C130.477 194.016 132.712 190.368 135.529 187.295C138.347 184.222 141.692 181.784 145.373 180.121C149.054 178.458 153 177.602 156.984 177.602C160.969 177.602 164.915 178.458 168.596 180.121C172.277 181.784 175.622 184.222 178.44 187.295C181.257 190.368 183.492 194.016 185.017 198.031C186.542 202.047 187.327 206.35 187.327 210.696Z" fill="white"/>
<path d="M156.984 225.211C165.51 225.211 172.422 217.672 172.422 208.373C172.422 199.075 165.51 191.536 156.984 191.536C148.459 191.536 141.547 199.075 141.547 208.373C141.547 217.672 148.459 225.211 156.984 225.211Z" fill="#D6974D"/>
<path d="M156.718 291.979C166.567 291.979 174.551 290.289 174.551 288.205C174.551 286.121 166.567 284.431 156.718 284.431C146.87 284.431 138.885 286.121 138.885 288.205C138.885 290.289 146.87 291.979 156.718 291.979Z" fill="white"/>
<path d="M434.829 184.582C434.694 184.867 434.58 185.164 434.488 185.469L409.052 193.177L404.468 188.285L396.794 194.865L404.137 204.386C404.731 205.155 405.537 205.694 406.434 205.921C407.332 206.148 408.273 206.051 409.116 205.645L436.593 192.417C437.525 193.122 438.632 193.502 439.767 193.505C440.901 193.507 442.01 193.133 442.945 192.432C443.88 191.731 444.597 190.736 445.001 189.579C445.405 188.422 445.476 187.159 445.206 185.957C444.935 184.755 444.336 183.672 443.487 182.85C442.638 182.029 441.58 181.509 440.453 181.36C439.327 181.211 438.185 181.439 437.181 182.014C436.176 182.59 435.356 183.485 434.829 184.582H434.829Z" fill="#FFB8B8"/>
<path d="M408.156 193.629L398.608 201.734C398.337 201.965 398.023 202.129 397.688 202.215C397.353 202.301 397.005 202.308 396.667 202.234C396.33 202.16 396.011 202.008 395.732 201.788C395.453 201.568 395.221 201.285 395.052 200.958L389.118 189.504C388.044 187.982 387.567 186.057 387.792 184.151C388.018 182.246 388.927 180.516 390.32 179.34C391.713 178.165 393.477 177.64 395.224 177.88C396.972 178.121 398.56 179.108 399.642 180.624L408.339 189.678C408.588 189.937 408.783 190.252 408.91 190.601C409.037 190.95 409.094 191.324 409.077 191.699C409.059 192.074 408.968 192.441 408.809 192.774C408.65 193.107 408.427 193.399 408.156 193.629V193.629Z" fill="#D6974D"/>
<path d="M437.268 180.748L446.95 185.499C447.356 185.698 447.672 186.064 447.83 186.518C447.988 186.971 447.974 187.474 447.791 187.916L446.645 190.695C446.78 190.762 446.885 190.884 446.937 191.035C446.99 191.186 446.986 191.354 446.925 191.501L446.467 192.613C446.406 192.76 446.294 192.875 446.155 192.932C446.017 192.989 445.863 192.984 445.728 192.919L445.269 194.03C445.404 194.097 445.509 194.219 445.562 194.37C445.614 194.521 445.61 194.688 445.55 194.836L445.091 195.948C445.03 196.095 444.918 196.209 444.78 196.267C444.641 196.324 444.488 196.319 444.352 196.253L438.162 211.259C437.98 211.702 437.644 212.047 437.228 212.219C436.813 212.391 436.351 212.375 435.946 212.177L426.264 207.426C425.858 207.227 425.542 206.86 425.384 206.407C425.227 205.953 425.241 205.45 425.423 205.008L435.052 181.665C435.234 181.223 435.57 180.878 435.986 180.706C436.402 180.534 436.863 180.549 437.268 180.748Z" fill="#3F3D56"/>
<path d="M428.022 205.947L435.789 209.762C436.178 209.952 436.62 209.966 437.019 209.802C437.418 209.637 437.741 209.308 437.918 208.885L441.505 200.182L442.751 197.165L445.997 189.291C446.171 188.867 446.184 188.386 446.033 187.952C445.882 187.518 445.58 187.167 445.193 186.975L442.751 185.774L437.42 183.16C437.031 182.97 436.589 182.957 436.191 183.123C435.793 183.288 435.471 183.62 435.297 184.044L432.157 191.656L428.581 200.322L427.217 203.631C427.043 204.055 427.03 204.536 427.181 204.97C427.332 205.404 427.634 205.756 428.022 205.947Z" fill="#F2F2F2"/>
<path d="M411.792 313.777L418.319 313.776L421.424 286.321L411.791 286.322L411.792 313.777Z" fill="#FFB8B8"/>
<path d="M410.128 311.453L422.98 311.452H422.981C424.056 311.452 425.121 311.683 426.115 312.132C427.109 312.581 428.012 313.239 428.772 314.069C429.533 314.898 430.136 315.883 430.548 316.967C430.959 318.051 431.171 319.212 431.171 320.386V320.676L410.128 320.677L410.128 311.453Z" fill="#2F2E41"/>
<path d="M428.827 312.035L435.353 312.035L438.458 284.58L428.826 284.58L428.827 312.035Z" fill="#FFB8B8"/>
<path d="M427.162 309.711L440.015 309.711H440.015C441.091 309.711 442.156 309.942 443.15 310.391C444.143 310.84 445.046 311.498 445.807 312.327C446.567 313.157 447.171 314.141 447.582 315.225C447.994 316.309 448.206 317.471 448.206 318.644V318.934L427.163 318.935L427.162 309.711Z" fill="#2F2E41"/>
<path d="M382.519 249.352C383.91 253.847 386.547 257.76 390.066 260.549C393.585 263.337 397.812 264.864 402.162 264.917L402.492 264.923C405.861 265.028 409.816 263.843 413.697 262.142C421.362 258.78 428.724 253.398 430.678 251.918L427.367 286.631L426.026 300.705C425.992 301.069 426.028 301.437 426.133 301.785C426.237 302.133 426.407 302.453 426.632 302.724C426.856 302.996 427.131 303.214 427.437 303.363C427.743 303.512 428.075 303.59 428.411 303.591H436.677C437.208 303.591 437.723 303.4 438.143 303.047C438.563 302.694 438.863 302.199 438.998 301.64L452.647 244.945C453.056 243.248 453.089 241.469 452.743 239.756C452.397 238.042 451.682 236.443 450.656 235.091C449.631 233.739 448.325 232.672 446.847 231.98C445.368 231.288 443.76 230.989 442.155 231.109L413.804 233.229L415.784 224.589L390.477 222.755L390.403 222.813C389.796 223.295 389.205 223.8 388.641 224.328C387.23 225.63 385.979 227.124 384.92 228.775C383.024 231.738 381.816 235.158 381.398 238.741C380.98 242.325 381.364 245.966 382.519 249.352Z" fill="#2F2E41"/>
<path d="M382.519 249.352C383.91 253.847 386.547 257.76 390.066 260.549C393.585 263.337 397.812 264.864 402.162 264.917C406.321 262.621 410.335 260.024 414.176 257.143L413.697 262.142L409.524 305.93C409.49 306.295 409.526 306.662 409.631 307.01C409.735 307.358 409.905 307.678 410.13 307.95C410.354 308.222 410.629 308.439 410.935 308.588C411.241 308.738 411.573 308.815 411.909 308.816H420.175C420.706 308.816 421.221 308.625 421.641 308.272C422.061 307.919 422.361 307.424 422.496 306.865L427.367 286.632L436.145 250.17C436.554 248.473 436.587 246.695 436.241 244.981C435.895 243.267 435.18 241.668 434.154 240.316C433.129 238.964 431.823 237.898 430.345 237.205C428.866 236.513 427.258 236.215 425.653 236.335L397.302 238.454L399.282 229.815L384.92 228.776C383.024 231.738 381.816 235.158 381.398 238.741C380.98 242.325 381.364 245.966 382.519 249.352Z" fill="#2F2E41"/>
<path d="M388.605 226.331L388.414 226.306L383.998 202.627C383.961 202.421 380.351 181.996 391.417 171.319L391.61 169.857C391.659 169.483 391.782 169.125 391.971 168.808C392.159 168.491 392.408 168.222 392.701 168.02C392.994 167.819 393.323 167.688 393.667 167.639C394.01 167.589 394.36 167.622 394.69 167.733L405.116 171.26C405.706 171.459 406.203 171.898 406.502 172.487C406.802 173.076 406.881 173.769 406.723 174.42L405.709 178.624C407.115 180.424 423.656 202.145 417.895 218.88L415.314 229.883L388.605 226.331Z" fill="#D6974D"/>
<path d="M431.893 207.85C431.644 208.021 431.407 208.214 431.186 208.425L405.689 200.96L404.022 194.205L394.347 195.617L396.232 207.887C396.384 208.878 396.827 209.789 397.495 210.482C398.162 211.176 399.017 211.614 399.933 211.732L429.76 215.575C430.233 216.7 431.01 217.64 431.986 218.272C432.962 218.903 434.091 219.196 435.223 219.11C436.355 219.025 437.436 218.566 438.323 217.794C439.21 217.021 439.86 215.973 440.187 214.788C440.515 213.603 440.503 212.337 440.155 211.16C439.807 209.982 439.138 208.947 438.238 208.194C437.337 207.441 436.248 207.005 435.115 206.943C433.981 206.882 432.858 207.198 431.893 207.85H431.893Z" fill="#FFB8B8"/>
<path d="M404.707 200.852L392.707 202.538C392.366 202.586 392.019 202.553 391.69 202.442C391.362 202.33 391.059 202.143 390.802 201.892C390.546 201.641 390.342 201.334 390.205 200.989C390.068 200.645 390 200.273 390.006 199.897L390.235 186.744C390.02 184.838 390.507 182.916 391.589 181.4C392.671 179.884 394.26 178.898 396.007 178.659C397.755 178.419 399.518 178.944 400.911 180.121C402.304 181.297 403.212 183.027 403.436 184.932L406.706 197.551C406.799 197.912 406.82 198.291 406.768 198.662C406.715 199.033 406.589 199.388 406.399 199.701C406.21 200.014 405.96 200.279 405.668 200.478C405.376 200.676 405.048 200.804 404.707 200.852Z" fill="#D6974D"/>
<path d="M401.329 164.519C408.55 164.519 414.403 158.135 414.403 150.259C414.403 142.384 408.55 135.999 401.329 135.999C394.108 135.999 388.254 142.384 388.254 150.259C388.254 158.135 394.108 164.519 401.329 164.519Z" fill="#FFB8B8"/>
<path d="M400.641 151.45L399.004 148.199C395.904 161.978 401.38 173.381 401.38 173.381L380.123 162.582L380.326 158.75L378.223 161.353L375.2 159.537L374.801 157.051L372.52 157.668L380.847 141.186C388.929 125.503 400.679 131.491 400.679 131.491C419.372 130.521 417.089 150.636 417.089 150.636L400.641 151.45Z" fill="#2F2E41"/>
<path d="M251.81 257.717C254.824 255.609 251.158 243.506 243.622 230.684C236.085 217.861 227.532 209.175 224.517 211.283C221.503 213.391 225.169 225.494 232.706 238.316C240.242 251.139 248.795 259.825 251.81 257.717Z" fill="#3F3D56"/>
</g>
<defs>
<clipPath id="clip0">
<rect width="523" height="443" fill="white"/>
</clipPath>
</defs>
</svg>
