<?xml version="1.0" encoding="UTF-8"?>
<svg width="314px" height="230px" viewBox="0 0 314 230" version="1.1" xmlns="http://www.w3.org/2000/svg" xmlns:xlink="http://www.w3.org/1999/xlink">
    <title>Group 3</title>
    <defs>
        <polygon id="path-1" points="0 0 312 0 312 228 0 228"></polygon>
    </defs>
    <g id="newnew" stroke="none" stroke-width="1" fill="none" fill-rule="evenodd">
        <g id="inner-fancy" transform="translate(-26.000000, -59.000000)">
            <g id="Group-5" transform="translate(0.000000, -2.000000)">
                <g id="Group-3" transform="translate(27.000000, 62.000000)">
                    <mask id="mask-2" fill="white">
                        <use xlink:href="#path-1"></use>
                    </mask>
                    <g id="Clip-2"></g>
                    <path d="M57.0499174,74.9813688 C65.3998435,73.9672676 72.0233678,69.8771047 75.4843084,62.0114068 C80.4600887,50.7023562 79.8945666,39.2542211 74.8943754,28.1153126 C72.5888899,22.9826916 68.3305225,19.1747485 62.7675215,18.2173614 C56.643067,17.1641006 50.312475,17.2964334 43.8476224,16.8980847 L43.8476224,75.0731915 C48.3406068,75.0731915 52.7535773,75.5025979 57.0499174,74.9813688 L57.0499174,74.9813688 Z M256.883978,222.652589 C256.883978,216.261456 256.778197,209.866272 256.955855,203.479191 C257.001965,201.816929 257.574268,199.931862 258.516804,198.568024 C264.199148,190.35124 270.068643,182.262736 275.854055,174.116169 C277.938486,171.180542 279.964601,168.205755 282.308059,164.829919 C279.861532,164.829919 278.151404,165.006813 276.492811,164.789409 C273.893037,164.449125 272.406677,165.545597 271.031522,167.669673 C265.604138,176.052549 260.005877,184.327398 254.449657,192.626553 C254.182492,193.027602 253.707833,193.292268 253.345736,193.605545 C247.428775,184.727097 241.670486,176.030943 235.82269,167.394204 C235.1324,166.374702 234.027123,165.099986 232.974737,164.958201 C230.360045,164.607114 227.663983,164.843423 224.578701,164.843423 C225.210675,166.020914 225.549717,166.823013 226.033869,167.529238 C232.186803,176.510312 238.190559,185.603464 244.60659,194.395491 C247.590159,198.482953 249.212136,202.525855 248.869025,207.673329 C248.454038,213.886218 248.770025,220.146368 248.770025,226.5321 L256.883978,226.5321 C256.883978,225.056184 256.883978,223.854386 256.883978,222.652589 L256.883978,222.652589 Z M81.6087629,208.669876 C78.4027819,216.817794 71.8660523,221.345465 63.4862905,221.225285 C54.8285143,221.101055 48.011058,216.457255 45.031557,208.44167 C42.415509,201.406427 42.3015909,194.128125 43.836773,186.891683 C45.7923672,177.675651 52.2694254,171.765237 61.0560376,170.755187 C69.9904721,169.728933 77.4195601,172.825249 80.9442406,181.67129 C81.2222551,182.368063 82.425176,183.253882 83.0585065,183.155308 C85.2215944,182.821775 87.3222985,182.087193 90.0834565,181.332356 C88.2458489,178.144217 87.0117361,175.199137 85.0873337,172.802294 C75.1289924,160.388669 52.5582891,160.922052 41.6384248,173.688113 C34.8128314,181.667239 33.993706,191.131733 34.8860645,200.97432 C36.6124663,220.023488 52.0022603,231.225862 70.7756933,227.174859 C81.1151178,224.944106 89.2534817,216.72057 90.3384161,207.121043 C87.8810397,206.613317 85.39654,206.10019 82.8198209,205.568158 C82.3316005,206.819918 81.9722159,207.746247 81.6087629,208.669876 L81.6087629,208.669876 Z M102.189968,207.654425 C102.424585,214.78419 105.033852,221.315758 112.176789,224.852284 C117.692324,227.58266 123.601148,228.226769 129.623889,227.844625 C142.927897,227.003366 150.548205,219.777727 151.124576,206.602514 C151.711797,193.169387 151.565331,179.703853 151.720038,166.253172 C151.725359,165.84132 151.517865,165.428117 151.410728,165.025718 L143.69142,165.025718 C143.618187,166.629915 143.511049,168.058569 143.496131,169.487223 C143.379501,181.599722 143.536816,193.723025 143.087925,205.823371 C142.752951,214.817949 139.117065,218.994533 131.327236,220.203082 C117.373624,222.369019 109.666522,217.214792 109.860454,202.554212 C110.010988,191.224906 109.888933,179.891549 109.888933,168.560893 C109.888933,167.379351 109.888933,166.197808 109.888933,164.95415 L102.052995,164.95415 C102.052995,179.427034 101.726158,193.552882 102.189968,207.654425 L102.189968,207.654425 Z M168.441485,226.676585 C173.830896,226.866983 173.837677,226.862932 173.839033,221.610131 C173.844458,208.709036 173.837677,195.807941 173.851239,182.906846 C173.852595,181.649685 173.958376,180.391173 174.058733,178.169873 C175.492202,180.084647 176.322177,181.116303 177.068069,182.204672 C186.224915,195.535173 195.366843,208.873777 204.515552,222.209679 C207.923603,227.177559 209.411319,227.70284 215.817856,226.156707 L215.817856,165.083782 L208.067356,165.083782 L208.067356,212.568292 C206.636599,211.651414 205.803912,210.519834 205.010554,209.363948 C195.417022,195.382586 185.849257,181.383669 176.196053,167.441466 C175.454229,166.369301 174.225541,165.172904 173.049744,164.9528 C170.905642,164.5504 168.629992,164.838021 166.240424,164.838021 L166.240424,226.457831 C167.135495,226.549654 167.786456,226.65363 168.441485,226.676585 L168.441485,226.676585 Z M289.360132,14.8307228 C288.58576,14.4512788 288.159923,14.298691 287.795114,14.0556308 C265.587864,-0.707575228 235.731826,4.91116623 219.482222,27.365877 C210.22502,40.1562445 205.991063,54.618326 205.039033,70.1201649 C203.870017,89.1585297 207.089559,107.219252 218.014848,123.371952 C230.804868,142.279335 254.143163,150.197696 274.699957,142.835673 C288.867843,137.762466 297.065878,127.146137 302.574633,113.91421 C305.121516,107.794495 305.064557,107.770189 298.763801,105.114081 C298.666157,105.072221 298.544102,105.089775 298.142676,105.053316 C297.75888,105.985047 297.463236,107.066665 296.907207,107.994344 C293.637486,113.453746 290.976684,119.451932 286.866139,124.202408 C276.361262,136.341914 257.978406,137.640936 245.348413,127.769992 C235.862019,120.358006 230.814361,110.188638 227.878258,98.9052434 C223.431383,81.8221629 224.144727,64.6418582 228.127793,47.6141414 C230.453621,37.6756802 234.493645,28.4609982 242.547927,21.5175787 C253.145023,12.3825665 271.75436,9.93035921 282.223976,26.7811822 C284.635243,30.660693 286.660002,34.8669846 288.227732,39.1515957 C290.070764,44.184292 291.361836,49.4330419 292.623072,54.6520843 C293.522212,58.3722556 296.309137,56.6910893 298.358307,56.9152448 C300.675998,57.1691077 300.298983,55.2786395 300.316613,53.8810434 C300.341024,51.8622934 300.296271,49.8421932 300.269147,47.8234432 C300.106407,35.9323985 299.980283,24.0400034 299.707694,12.1530096 C299.683283,11.0848951 298.93739,9.36321876 298.14132,9.10125388 C294.653256,7.95076897 292.533565,9.03373716 290.784108,12.2947947 C290.370477,13.0658357 289.928367,13.8206726 289.360132,14.8307228 L289.360132,14.8307228 Z M9.76440928,9.26599468 C9.66947753,10.1531644 9.63150482,10.9174537 9.49995653,11.6655389 C8.94799617,14.8172194 10.1088759,16.3998113 13.4653916,16.6388205 C15.6827262,16.7968096 17.8973485,17.4341675 20.0400939,18.094481 C23.0982526,19.0383648 25.0158741,21.0949241 25.2857515,24.3951413 C25.4213683,26.069556 25.5325741,27.7507223 25.5325741,29.429188 C25.547492,60.493631 25.5447796,91.5594242 25.5461358,122.623867 C25.5461358,123.297684 25.555629,123.970151 25.5352864,124.642617 C25.3413544,130.987839 22.9951839,133.568328 16.7188386,134.369076 C14.6154221,134.636442 12.5174302,134.932165 10.3909589,135.218436 C10.2417804,135.989477 10.0776841,136.52556 10.0424237,137.071095 C9.68303921,142.468382 9.68982005,142.471082 15.1117795,142.472433 C28.7507607,142.474989 42.3897418,142.476484 56.0287229,142.472433 C60.8512562,142.471082 60.7793793,142.450827 60.6112145,137.547763 C60.5461184,135.647843 59.8531166,134.960522 57.999235,134.99158 C56.7746153,135.011835 55.5405025,134.729615 54.3158828,134.54732 C45.2390507,133.201037 43.6686082,131.417245 43.6604712,122.379457 C43.6496218,110.827346 43.6536903,99.2765854 43.667252,87.7258249 C43.6686082,86.5456326 43.7771016,85.36409 43.8259237,84.3810466 C51.1994088,84.0164563 58.2474137,84.2608668 65.0987742,83.2265106 C94.1451795,78.8392742 104.827715,51.7367123 97.5952708,30.0408895 C93.0561766,16.4241174 81.7321742,9.90065185 67.9507954,9.29705237 C49.1624446,8.47469872 30.3144223,9.00132914 11.4921673,8.96487011 C10.9591933,8.96487011 10.4262192,9.14581492 9.76440928,9.26599468 L9.76440928,9.26599468 Z M176.433383,14.8712328 C175.435243,14.2487286 174.587638,13.7302002 173.74817,13.1981685 C161.660645,5.52691871 148.885543,2.96263368 135.584248,9.44693949 C122.752186,15.7016884 116.172059,26.5030133 115.378701,40.6221099 C114.505329,56.1847139 120.220221,68.6064401 134.28097,76.2263771 C141.781935,80.292234 149.611093,83.8544161 157.546031,87.0087973 C170.763244,92.2615981 176.81989,103.341092 175.522038,117.58847 C174.47372,129.105472 167.225002,135.788277 155.570095,136.306806 C144.850943,136.783474 137.046197,131.872308 130.801043,123.736543 C124.989864,116.166568 122.143267,107.311075 119.649274,98.3164976 C118.682326,94.8312845 116.006607,96.6110253 114.061862,96.3544617 C111.806555,96.0573881 111.986925,97.8614349 112.024898,99.3211464 C112.278501,108.963884 112.589064,118.605272 112.796557,128.24801 C112.896914,132.913415 112.814188,137.584222 112.814188,141.73515 C119.566548,144.488482 121.773033,140.608971 123.422133,136.32301 C123.979518,136.379724 124.226341,136.340564 124.401287,136.433737 C125.394002,136.961718 126.359593,137.541011 127.352308,138.068992 C140.321342,144.973252 153.849118,147.961542 167.945127,142.157805 C183.560045,135.728863 191.394627,123.416514 192.432096,106.88707 C193.438373,90.8653524 187.273233,78.3909631 172.655099,70.8304408 C163.966131,66.3365279 155.037121,62.3044294 146.215248,58.0657297 C136.861758,53.5718168 131.949717,46.1922393 131.093975,35.8608308 C130.273494,25.9507266 137.002799,16.6644769 146.71025,14.8847361 C155.681301,13.2386785 164.899174,17.7677001 170.470312,26.4638536 C175.15316,33.7759144 177.491194,41.9724443 179.446788,50.2729499 C180.089611,53.0006253 181.20845,54.1848686 183.988594,53.7338569 C184.954186,53.5772181 185.942832,53.5623645 186.859602,53.4867457 L186.859602,9.41723213 C180.646996,8.22218618 180.646996,8.22218618 176.433383,14.8712328 L176.433383,14.8712328 Z M0,152.227248 L312,152.227248 L312,0 L0,0 L0,152.227248 Z" id="Fill-1" fill="#D61C1F" mask="url(#mask-2)"></path>
                </g>
            </g>
        </g>
    </g>
</svg>