<svg width="139" height="146" viewBox="0 0 139 146" fill="none" xmlns="http://www.w3.org/2000/svg">
<g filter="url(#filter0_d)">
<path d="M65.362 130.425C98.1467 130.425 124.724 102.348 124.724 67.7127C124.724 33.0774 98.1467 5 65.362 5C32.5773 5 6 33.0774 6 67.7127C6 102.348 32.5773 130.425 65.362 130.425Z" fill="#D6974D"/>
<path d="M64.2127 110.879C68.0703 110.879 71.1975 107.575 71.1975 103.5C71.1975 99.4249 68.0703 96.1212 64.2127 96.1212C60.355 96.1212 57.2278 99.4249 57.2278 103.5C57.2278 107.575 60.355 110.879 64.2127 110.879Z" fill="white"/>
<path d="M63.4643 26.5009C58.1987 26.5561 53.1614 28.78 49.4243 32.6992C45.6872 36.6185 43.5454 41.9237 43.4546 47.4859C43.4532 47.5924 43.4525 48.341 43.4526 49.3201C43.4527 50.7558 43.9926 52.1326 44.9534 53.1478C45.9143 54.1629 47.2175 54.7333 48.5764 54.7335C49.9363 54.7332 51.2405 54.1622 52.2019 53.1461C53.1632 52.13 53.7032 50.752 53.7029 49.3153V49.3118C53.7024 48.6458 53.702 48.1848 53.702 48.1565C53.7017 46.3743 54.1405 44.6226 54.9753 43.0739C55.8101 41.5252 57.0121 40.2328 58.4631 39.3237C59.9142 38.4146 61.5642 37.9203 63.251 37.8892C64.9377 37.8582 66.603 38.2916 68.0831 39.1467C69.5632 40.0018 70.8071 41.2493 71.6924 42.7664C72.5778 44.2834 73.0741 46.0178 73.1324 47.799C73.1908 49.5801 72.8094 51.3466 72.0255 52.9248C71.2416 54.5029 70.0824 55.8383 68.6618 56.7996L68.6636 56.8019C68.6636 56.8019 61.3708 61.7618 59.1474 68.566L59.1493 68.5665C58.7583 69.9604 58.5602 71.4067 58.5611 72.8605C58.5611 73.4581 58.5944 78.687 58.6587 82.931C58.6812 84.3953 59.2476 85.7916 60.2359 86.8187C61.2242 87.8457 62.5551 88.4211 63.9413 88.4208C64.6352 88.4207 65.3222 88.2763 65.9633 87.9958C66.6043 87.7153 67.1868 87.3041 67.6774 86.7858C68.168 86.2674 68.5571 85.6521 68.8226 84.9748C69.0881 84.2976 69.2248 83.5718 69.2247 82.8388L69.2246 82.8045C69.2023 78.9178 69.1902 74.392 69.1902 74.0636C69.1902 69.8856 73.0054 65.7228 76.1392 63.0082C79.7667 59.9045 82.3162 55.6164 83.3878 50.8167C83.6186 49.8274 83.7459 48.8142 83.7673 47.7955C83.7673 44.999 83.2459 42.2299 82.2329 39.6462C81.2199 37.0626 79.7351 34.715 77.8633 32.7376C75.9916 30.7602 73.7695 29.1916 71.3239 28.1214C68.8782 27.0512 66.257 26.5004 63.6099 26.5004C63.5614 26.5004 63.5128 26.5006 63.4643 26.5009Z" fill="white"/>
</g>
<defs>
<filter id="filter0_d" x="0" y="0" width="138.724" height="145.425" filterUnits="userSpaceOnUse" color-interpolation-filters="sRGB">
<feFlood flood-opacity="0" result="BackgroundImageFix"/>
<feColorMatrix in="SourceAlpha" type="matrix" values="0 0 0 0 0 0 0 0 0 0 0 0 0 0 0 0 0 0 127 0"/>
<feOffset dx="4" dy="5"/>
<feGaussianBlur stdDeviation="5"/>
<feColorMatrix type="matrix" values="0 0 0 0 0 0 0 0 0 0 0 0 0 0 0 0 0 0 0.25 0"/>
<feBlend mode="normal" in2="BackgroundImageFix" result="effect1_dropShadow"/>
<feBlend mode="normal" in="SourceGraphic" in2="effect1_dropShadow" result="shape"/>
</filter>
</defs>
</svg>
