<svg width="32" height="105" viewBox="0 0 32 105" fill="none" xmlns="http://www.w3.org/2000/svg">
<rect x="1" y="1" width="30" height="65" rx="15" stroke="white" stroke-width="2"/>
<path d="M27 48.5C27 54.299 22.0751 59 16 59C9.92487 59 5 54.299 5 48.5C5 42.701 9.92487 38 16 38C22.0751 38 27 42.701 27 48.5Z" fill="white"/>
<path d="M15.2929 104.707C15.6834 105.098 16.3166 105.098 16.7071 104.707L23.0711 98.3431C23.4616 97.9526 23.4616 97.3195 23.0711 96.9289C22.6805 96.5384 22.0474 96.5384 21.6569 96.9289L16 102.586L10.3431 96.9289C9.95262 96.5384 9.31946 96.5384 8.92893 96.9289C8.53841 97.3195 8.53841 97.9526 8.92893 98.3431L15.2929 104.707ZM15 82L15 93L17 93L17 82L15 82ZM15 93L15 104L17 104L17 93L15 93Z" fill="white"/>
</svg>
