<?xml version="1.0" standalone="no"?><!DOCTYPE svg PUBLIC "-//W3C//DTD SVG 1.1//EN" "http://www.w3.org/Graphics/SVG/1.1/DTD/svg11.dtd"><svg t="1644159371151" class="icon" viewBox="0 0 1024 1024" version="1.1" xmlns="http://www.w3.org/2000/svg" p-id="2143" xmlns:xlink="http://www.w3.org/1999/xlink" width="200" height="200"><defs><style type="text/css"></style></defs><path d="M512 512m-512 0a512 512 0 1 0 1024 0 512 512 0 1 0-1024 0Z" fill="#28A5C6" p-id="2144"></path><path d="M568 152c-17.6 0-32-14.4-32-32s14.4-32 32-32 32 14.4 32 32-14.4 32-32 32z m0-48.8c-9.6 0-16.8 8-16.8 16.8 0 9.6 8 16.8 16.8 16.8 9.6 0 16.8-8 16.8-16.8 0-9.6-7.2-16.8-16.8-16.8zM112 464c-17.6 0-32-14.4-32-32s14.4-32 32-32 32 14.4 32 32-14.4 32-32 32z m0-48.8c-9.6 0-16.8 8-16.8 16.8 0 9.6 8 16.8 16.8 16.8 9.6 0 16.8-8 16.8-16.8 0-9.6-7.2-16.8-16.8-16.8zM986.4 463.2c0-3.2-3.2-6.4-8-7.2l-15.2-2.4c-4-0.8-8.8-4.8-8.8-8.8l-2.4-15.2c-0.8-4-4-8-7.2-8s-6.4 3.2-7.2 8l-2.4 15.2c-0.8 4-4.8 8.8-8.8 8.8l-14.4 2.4c-4 0.8-8 4-8 7.2s3.2 6.4 8 7.2l15.2 2.4c4 0.8 8.8 4.8 8.8 8.8l2.4 15.2c0.8 4 4 8 7.2 8s6.4-3.2 6.4-8l2.4-16.8c0.8-4 4.8-8 8.8-8.8l14.4-0.8c4.8-1.6 8.8-4 8.8-7.2zM408 111.2c0-3.2-3.2-6.4-8-7.2l-15.2-2.4c-4-0.8-8.8-4.8-8.8-8.8l-2.4-15.2c-0.8-4-4-8-7.2-8s-6.4 3.2-7.2 8l-2.4 15.2c-0.8 4-4.8 8.8-8.8 8.8l-14.4 2.4c-4 0.8-8 4-8 7.2s3.2 6.4 8 7.2l15.2 2.4c4 0.8 8.8 4.8 8.8 8.8L360 144c0.8 4 4 8 7.2 8s6.4-3.2 7.2-8l2.4-16.8c0.8-4 4.8-8 8.8-8.8l14.4-0.8c4.8-0.8 8-3.2 8-6.4zM154.4 631.2c0-3.2-3.2-6.4-8-7.2l-15.2-2.4c-4-0.8-8.8-4.8-8.8-8.8l-2.4-15.2c-0.8-4-4-8-7.2-8s-6.4 3.2-7.2 8l-1.6 15.2c-0.8 4-4.8 8.8-8.8 8.8L80 624c-4 0.8-8 4-8 7.2s3.2 6.4 8 7.2l15.2 2.4c4 0.8 8.8 4.8 8.8 8.8l2.4 15.2c0.8 4 4 8 7.2 8s6.4-3.2 7.2-8l2.4-16.8c0.8-4 4.8-8 8.8-8.8l14.4-0.8c4-1.6 8-4 8-7.2z" fill="#FFFFFF" opacity=".5" p-id="2145"></path><path d="M192 256c0-26.4 21.6-48 48-48h560c26.4 0 48 21.6 48 48v280c0 26.4-21.6 48-48 48H240c-26.4 0-48-21.6-48-48V256z" fill="#AD5114" p-id="2146"></path><path d="M800 592H240c-31.2 0-56-24.8-56-56V256c0-31.2 24.8-56 56-56h560c31.2 0 56 24.8 56 56v280c0 31.2-24.8 56-56 56zM240 216c-22.4 0-40 17.6-40 40v280c0 22.4 17.6 40 40 40h560c22.4 0 40-17.6 40-40V256c0-22.4-17.6-40-40-40H240z" fill="#663210" p-id="2147"></path><path d="M233.6 296c0-26.4 21.6-48 48-48h476.8c26.4 0 48 21.6 48 48v184c0 26.4-21.6 48-48 48H281.6c-26.4 0-48-21.6-48-48V296z" fill="#993F0D" p-id="2148"></path><path d="M192 480h656v360H192z" fill="#AD5114" p-id="2149"></path><path d="M192 512h656v64H192zM192 768h656v16H192zM192 696h656v16H192zM192 624h656v16H192z" fill="#993F0D" p-id="2150"></path><path d="M192 488h64v352h-64zM784 488h64v352h-64z" fill="#EAEAEA" p-id="2151"></path><path d="M260 468m-52 0a52 52 0 1 0 104 0 52 52 0 1 0-104 0Z" fill="#FBD000" p-id="2152"></path><path d="M260 496c-24.8 0-44.8-16.8-50.4-40-0.8 4-1.6 8-1.6 12 0 28.8 23.2 52 52 52s52-23.2 52-52c0-4-0.8-8-1.6-12-5.6 23.2-25.6 40-50.4 40z" fill="#F4B10B" p-id="2153"></path><path d="M260 528c-32.8 0-60-27.2-60-60s27.2-60 60-60 60 27.2 60 60-27.2 60-60 60z m0-104c-24 0-44 20-44 44s20 44 44 44 44-20 44-44-20-44-44-44z" fill="#663210" p-id="2154"></path><path d="M340 444m-52 0a52 52 0 1 0 104 0 52 52 0 1 0-104 0Z" fill="#FBD000" p-id="2155"></path><path d="M340 472c-24.8 0-44.8-16.8-50.4-40-0.8 4-1.6 8-1.6 12 0 28.8 23.2 52 52 52s52-23.2 52-52c0-4-0.8-8-1.6-12-5.6 23.2-25.6 40-50.4 40z" fill="#F4B10B" p-id="2156"></path><path d="M340 504c-32.8 0-60-27.2-60-60s27.2-60 60-60 60 27.2 60 60-27.2 60-60 60z m0-104c-24 0-44 20-44 44s20 44 44 44 44-20 44-44-20-44-44-44z" fill="#663210" p-id="2157"></path><path d="M420 476m-52 0a52 52 0 1 0 104 0 52 52 0 1 0-104 0Z" fill="#FBD000" p-id="2158"></path><path d="M420 504c-24.8 0-44.8-16.8-50.4-40-0.8 4-1.6 8-1.6 12 0 28.8 23.2 52 52 52s52-23.2 52-52c0-4-0.8-8-1.6-12-5.6 23.2-25.6 40-50.4 40z" fill="#F4B10B" p-id="2159"></path><path d="M420 536c-32.8 0-60-27.2-60-60s27.2-60 60-60 60 27.2 60 60-27.2 60-60 60z m0-104c-24 0-44 20-44 44s20 44 44 44 44-20 44-44-20-44-44-44z" fill="#663210" p-id="2160"></path><path d="M588 412m-52 0a52 52 0 1 0 104 0 52 52 0 1 0-104 0Z" fill="#FBD000" p-id="2161"></path><path d="M588 440c-24.8 0-44.8-16.8-50.4-40-0.8 4-1.6 8-1.6 12 0 28.8 23.2 52 52 52s52-23.2 52-52c0-4-0.8-8-1.6-12-5.6 23.2-25.6 40-50.4 40z" fill="#F4B10B" p-id="2162"></path><path d="M588 472c-32.8 0-60-27.2-60-60s27.2-60 60-60 60 27.2 60 60-27.2 60-60 60z m0-104c-24 0-44 20-44 44s20 44 44 44 44-20 44-44-20-44-44-44z" fill="#663210" p-id="2163"></path><path d="M620 356m-52 0a52 52 0 1 0 104 0 52 52 0 1 0-104 0Z" fill="#FBD000" p-id="2164"></path><path d="M620 384c-24.8 0-44.8-16.8-50.4-40-0.8 4-1.6 8-1.6 12 0 28.8 23.2 52 52 52s52-23.2 52-52c0-4-0.8-8-1.6-12-5.6 23.2-25.6 40-50.4 40z" fill="#F4B10B" p-id="2165"></path><path d="M620 416c-32.8 0-60-27.2-60-60s27.2-60 60-60 60 27.2 60 60-27.2 60-60 60z m0-104c-24 0-44 20-44 44s20 44 44 44 44-20 44-44-20-44-44-44z" fill="#663210" p-id="2166"></path><path d="M724 476m-52 0a52 52 0 1 0 104 0 52 52 0 1 0-104 0Z" fill="#FBD000" p-id="2167"></path><path d="M724 504c-24.8 0-44.8-16.8-50.4-40-0.8 4-1.6 8-1.6 12 0 28.8 23.2 52 52 52s52-23.2 52-52c0-4-0.8-8-1.6-12-5.6 23.2-25.6 40-50.4 40z" fill="#F4B10B" p-id="2168"></path><path d="M724 536c-32.8 0-60-27.2-60-60s27.2-60 60-60 60 27.2 60 60-27.2 60-60 60z m0-104c-24 0-44 20-44 44s20 44 44 44 44-20 44-44-20-44-44-44z" fill="#663210" p-id="2169"></path><path d="M788 468m-52 0a52 52 0 1 0 104 0 52 52 0 1 0-104 0Z" fill="#FBD000" p-id="2170"></path><path d="M788 496c-24.8 0-44.8-16.8-50.4-40-0.8 4-1.6 8-1.6 12 0 28.8 23.2 52 52 52s52-23.2 52-52c0-4-0.8-8-1.6-12-5.6 23.2-25.6 40-50.4 40z" fill="#F4B10B" p-id="2171"></path><path d="M788 528c-32.8 0-60-27.2-60-60s27.2-60 60-60 60 27.2 60 60-27.2 60-60 60z m0-104c-24 0-44 20-44 44s20 44 44 44 44-20 44-44-20-44-44-44z" fill="#663210" p-id="2172"></path><path d="M700 396m-52 0a52 52 0 1 0 104 0 52 52 0 1 0-104 0Z" fill="#FBD000" p-id="2173"></path><path d="M700 424c-24.8 0-44.8-16.8-50.4-40-0.8 4-1.6 8-1.6 12 0 28.8 23.2 52 52 52s52-23.2 52-52c0-4-0.8-8-1.6-12-5.6 23.2-25.6 40-50.4 40z" fill="#F4B10B" p-id="2174"></path><path d="M700 456c-32.8 0-60-27.2-60-60s27.2-60 60-60 60 27.2 60 60-27.2 60-60 60z m0-104c-24 0-44 20-44 44s20 44 44 44 44-20 44-44-20-44-44-44z" fill="#663210" p-id="2175"></path><path d="M628 460m-52 0a52 52 0 1 0 104 0 52 52 0 1 0-104 0Z" fill="#FBD000" p-id="2176"></path><path d="M628 488c-24.8 0-44.8-16.8-50.4-40-0.8 4-1.6 8-1.6 12 0 28.8 23.2 52 52 52s52-23.2 52-52c0-4-0.8-8-1.6-12-5.6 23.2-25.6 40-50.4 40z" fill="#F4B10B" p-id="2177"></path><path d="M628 520c-32.8 0-60-27.2-60-60s27.2-60 60-60 60 27.2 60 60-27.2 60-60 60z m0-104c-24 0-44 20-44 44s20 44 44 44 44-20 44-44-20-44-44-44z" fill="#663210" p-id="2178"></path><path d="M436 380m-52 0a52 52 0 1 0 104 0 52 52 0 1 0-104 0Z" fill="#FBD000" p-id="2179"></path><path d="M436 408c-24.8 0-44.8-16.8-50.4-40-0.8 4-1.6 8-1.6 12 0 28.8 23.2 52 52 52s52-23.2 52-52c0-4-0.8-8-1.6-12-5.6 23.2-25.6 40-50.4 40z" fill="#F4B10B" p-id="2180"></path><path d="M436 440c-32.8 0-60-27.2-60-60s27.2-60 60-60 60 27.2 60 60-27.2 60-60 60z m0-104c-24 0-44 20-44 44s20 44 44 44 44-20 44-44-20-44-44-44z" fill="#663210" p-id="2181"></path><path d="M484 444m-52 0a52 52 0 1 0 104 0 52 52 0 1 0-104 0Z" fill="#FBD000" p-id="2182"></path><path d="M484 472c-24.8 0-44.8-16.8-50.4-40-0.8 4-1.6 8-1.6 12 0 28.8 23.2 52 52 52s52-23.2 52-52c0-4-0.8-8-1.6-12-5.6 23.2-25.6 40-50.4 40z" fill="#F4B10B" p-id="2183"></path><path d="M484 504c-32.8 0-60-27.2-60-60s27.2-60 60-60 60 27.2 60 60-27.2 60-60 60z m0-104c-24 0-44 20-44 44s20 44 44 44 44-20 44-44-20-44-44-44z" fill="#663210" p-id="2184"></path><path d="M356 388m-52 0a52 52 0 1 0 104 0 52 52 0 1 0-104 0Z" fill="#FBD000" p-id="2185"></path><path d="M356 416c-24.8 0-44.8-16.8-50.4-40-0.8 4-1.6 8-1.6 12 0 28.8 23.2 52 52 52s52-23.2 52-52c0-4-0.8-8-1.6-12-5.6 23.2-25.6 40-50.4 40z" fill="#F4B10B" p-id="2186"></path><path d="M356 448c-32.8 0-60-27.2-60-60s27.2-60 60-60 60 27.2 60 60-27.2 60-60 60z m0-104c-24 0-44 20-44 44s20 44 44 44 44-20 44-44-20-44-44-44z" fill="#663210" p-id="2187"></path><path d="M516 348m-52 0a52 52 0 1 0 104 0 52 52 0 1 0-104 0Z" fill="#FBD000" p-id="2188"></path><path d="M516 376c-24.8 0-44.8-16.8-50.4-40-0.8 4-1.6 8-1.6 12 0 28.8 23.2 52 52 52s52-23.2 52-52c0-4-0.8-8-1.6-12-5.6 23.2-25.6 40-50.4 40z" fill="#F4B10B" p-id="2189"></path><path d="M516 408c-32.8 0-60-27.2-60-60s27.2-60 60-60 60 27.2 60 60-27.2 60-60 60z m0-104c-24 0-44 20-44 44s20 44 44 44 44-20 44-44-20-44-44-44z" fill="#663210" p-id="2190"></path><path d="M300 420m-52 0a52 52 0 1 0 104 0 52 52 0 1 0-104 0Z" fill="#FBD000" p-id="2191"></path><path d="M300 448c-24.8 0-44.8-16.8-50.4-40-0.8 4-1.6 8-1.6 12 0 28.8 23.2 52 52 52s52-23.2 52-52c0-4-0.8-8-1.6-12-5.6 23.2-25.6 40-50.4 40z" fill="#F4B10B" p-id="2192"></path><path d="M300 480c-32.8 0-60-27.2-60-60s27.2-60 60-60 60 27.2 60 60-27.2 60-60 60z m0-104c-24 0-44 20-44 44s20 44 44 44 44-20 44-44-20-44-44-44z" fill="#663210" p-id="2193"></path><path d="M564 460m-52 0a52 52 0 1 0 104 0 52 52 0 1 0-104 0Z" fill="#FBD000" p-id="2194"></path><path d="M564 488c-24.8 0-44.8-16.8-50.4-40-0.8 4-1.6 8-1.6 12 0 28.8 23.2 52 52 52s52-23.2 52-52c0-4-0.8-8-1.6-12-5.6 23.2-25.6 40-50.4 40z" fill="#F4B10B" p-id="2195"></path><path d="M564 520c-32.8 0-60-27.2-60-60s27.2-60 60-60 60 27.2 60 60-27.2 60-60 60z m0-104c-24 0-44 20-44 44s20 44 44 44 44-20 44-44-20-44-44-44zM256 848h-64c-4.8 0-8-3.2-8-8V488c0-4.8 3.2-8 8-8h64c4.8 0 8 3.2 8 8v352c0 4.8-3.2 8-8 8z m-56-16h48V496h-48v336zM848 848h-64c-4.8 0-8-3.2-8-8V488c0-4.8 3.2-8 8-8h64c4.8 0 8 3.2 8 8v352c0 4.8-3.2 8-8 8z m-56-16h48V496h-48v336z" fill="#663210" p-id="2196"></path><path d="M192 480h656v64H192z" fill="#EAEAEA" p-id="2197"></path><path d="M592 640c0 26.4-21.6 48-48 48h-40c-26.4 0-48-21.6-48-48v-32c0-26.4 21.6-48 48-48h40c26.4 0 48 21.6 48 48v32z" fill="#993F0D" p-id="2198"></path><path d="M848 552H192c-4.8 0-8-3.2-8-8v-64c0-4.8 3.2-8 8-8h656c4.8 0 8 3.2 8 8v64c0 4.8-3.2 8-8 8z m-648-16h640v-48H200v48z" fill="#663210" p-id="2199"></path><path d="M592 608c0 26.4-21.6 48-48 48h-40c-26.4 0-48-21.6-48-48v-32c0-26.4 21.6-48 48-48h40c26.4 0 48 21.6 48 48v32z" fill="#EAEAEA" p-id="2200"></path><path d="M945.6 848H85.6c-4.8 0-8-3.2-8-8s3.2-8 8-8h860c4.8 0 8 3.2 8 8s-3.2 8-8 8zM544 664h-40c-31.2 0-56-24.8-56-56v-32c0-31.2 24.8-56 56-56h40c31.2 0 56 24.8 56 56v32c0 31.2-24.8 56-56 56z m-40-128c-22.4 0-40 17.6-40 40v32c0 22.4 17.6 40 40 40h40c22.4 0 40-17.6 40-40v-32c0-22.4-17.6-40-40-40h-40z" fill="#663210" p-id="2201"></path><path d="M296 480m-24 0a24 24 0 1 0 48 0 24 24 0 1 0-48 0Z" fill="#3AD0F9" p-id="2202"></path><path d="M296 512c-17.6 0-32-14.4-32-32s14.4-32 32-32 32 14.4 32 32-14.4 32-32 32z m0-48c-8.8 0-16 7.2-16 16s7.2 16 16 16 16-7.2 16-16-7.2-16-16-16z" fill="#663210" p-id="2203"></path><path d="M280 536m-24 0a24 24 0 1 0 48 0 24 24 0 1 0-48 0Z" fill="#3AD0F9" p-id="2204"></path><path d="M280 568c-17.6 0-32-14.4-32-32s14.4-32 32-32 32 14.4 32 32-14.4 32-32 32z m0-48c-8.8 0-16 7.2-16 16s7.2 16 16 16 16-7.2 16-16-7.2-16-16-16z" fill="#663210" p-id="2205"></path><path d="M304 584m-24 0a24 24 0 1 0 48 0 24 24 0 1 0-48 0Z" fill="#3AD0F9" p-id="2206"></path><path d="M304 616c-17.6 0-32-14.4-32-32s14.4-32 32-32 32 14.4 32 32-14.4 32-32 32z m0-48c-8.8 0-16 7.2-16 16s7.2 16 16 16 16-7.2 16-16-7.2-16-16-16z" fill="#663210" p-id="2207"></path><path d="M312 640m-24 0a24 24 0 1 0 48 0 24 24 0 1 0-48 0Z" fill="#3AD0F9" p-id="2208"></path><path d="M312 672c-17.6 0-32-14.4-32-32s14.4-32 32-32 32 14.4 32 32-14.4 32-32 32z m0-48c-8.8 0-16 7.2-16 16s7.2 16 16 16 16-7.2 16-16-7.2-16-16-16z" fill="#663210" p-id="2209"></path><path d="M336 688m-24 0a24 24 0 1 0 48 0 24 24 0 1 0-48 0Z" fill="#3AD0F9" p-id="2210"></path><path d="M336 720c-17.6 0-32-14.4-32-32s14.4-32 32-32 32 14.4 32 32-14.4 32-32 32z m0-48c-8.8 0-16 7.2-16 16s7.2 16 16 16 16-7.2 16-16-7.2-16-16-16z" fill="#663210" p-id="2211"></path><path d="M384 712m-24 0a24 24 0 1 0 48 0 24 24 0 1 0-48 0Z" fill="#3AD0F9" p-id="2212"></path><path d="M384 744c-17.6 0-32-14.4-32-32s14.4-32 32-32 32 14.4 32 32-14.4 32-32 32z m0-48c-8.8 0-16 7.2-16 16s7.2 16 16 16 16-7.2 16-16-7.2-16-16-16z" fill="#663210" p-id="2213"></path><path d="M408 664m-24 0a24 24 0 1 0 48 0 24 24 0 1 0-48 0Z" fill="#3AD0F9" p-id="2214"></path><path d="M408 696c-17.6 0-32-14.4-32-32s14.4-32 32-32 32 14.4 32 32-14.4 32-32 32z m0-48c-8.8 0-16 7.2-16 16s7.2 16 16 16 16-7.2 16-16-7.2-16-16-16z" fill="#663210" p-id="2215"></path><path d="M408 608m-24 0a24 24 0 1 0 48 0 24 24 0 1 0-48 0Z" fill="#3AD0F9" p-id="2216"></path><path d="M408 640c-17.6 0-32-14.4-32-32s14.4-32 32-32 32 14.4 32 32-14.4 32-32 32z m0-48c-8.8 0-16 7.2-16 16s7.2 16 16 16 16-7.2 16-16-7.2-16-16-16z" fill="#663210" p-id="2217"></path><path d="M416 552m-24 0a24 24 0 1 0 48 0 24 24 0 1 0-48 0Z" fill="#3AD0F9" p-id="2218"></path><path d="M416 584c-17.6 0-32-14.4-32-32s14.4-32 32-32 32 14.4 32 32-14.4 32-32 32z m0-48c-8.8 0-16 7.2-16 16s7.2 16 16 16 16-7.2 16-16-7.2-16-16-16z" fill="#663210" p-id="2219"></path><path d="M432 496m-24 0a24 24 0 1 0 48 0 24 24 0 1 0-48 0Z" fill="#3AD0F9" p-id="2220"></path><path d="M432 528c-17.6 0-32-14.4-32-32s14.4-32 32-32 32 14.4 32 32-14.4 32-32 32z m0-48c-8.8 0-16 7.2-16 16s7.2 16 16 16 16-7.2 16-16-7.2-16-16-16z" fill="#663210" p-id="2221"></path><path d="M472 456m-24 0a24 24 0 1 0 48 0 24 24 0 1 0-48 0Z" fill="#3AD0F9" p-id="2222"></path><path d="M472 488c-17.6 0-32-14.4-32-32s14.4-32 32-32 32 14.4 32 32-14.4 32-32 32z m0-48c-8.8 0-16 7.2-16 16s7.2 16 16 16 16-7.2 16-16-7.2-16-16-16z" fill="#663210" p-id="2223"></path><path d="M524 580m-20 0a20 20 0 1 0 40 0 20 20 0 1 0-40 0Z" fill="#663210" p-id="2224"></path><path d="M536 632h-24l8-40h8z" fill="#663210" p-id="2225"></path><path d="M744 744H456c-4.8 0-8-3.2-8-8s3.2-8 8-8h288c4.8 0 8 3.2 8 8s-3.2 8-8 8zM744 816h-72c-4.8 0-8-3.2-8-8s3.2-8 8-8h72c4.8 0 8 3.2 8 8s-3.2 8-8 8zM600 816H288c-4.8 0-8-3.2-8-8s3.2-8 8-8h312c4.8 0 8 3.2 8 8s-3.2 8-8 8zM744 672H632c-4.8 0-8-3.2-8-8s3.2-8 8-8h112c4.8 0 8 3.2 8 8s-3.2 8-8 8zM744 608H632c-4.8 0-8-3.2-8-8s3.2-8 8-8h112c4.8 0 8 3.2 8 8s-3.2 8-8 8z" fill="#FFFFFF" opacity=".5" p-id="2226"></path><path d="M768 240H680c-4.8 0-8-3.2-8-8s3.2-8 8-8h88c4.8 0 8 3.2 8 8s-3.2 8-8 8z" fill="#FFFFFF" p-id="2227"></path><path d="M616 240H320c-4.8 0-8-3.2-8-8s3.2-8 8-8h296c4.8 0 8 3.2 8 8s-3.2 8-8 8z" fill="#FFFFFF" opacity=".5" p-id="2228"></path><path d="M892.8 102.4c-2.4 0-4-0.8-5.6-2.4-3.2-3.2-3.2-8 0-11.2l51.2-51.2c3.2-3.2 8-3.2 11.2 0 3.2 3.2 3.2 8 0 11.2l-51.2 51.2c-1.6 1.6-4 2.4-5.6 2.4zM850.4 77.6h-1.6c-4-0.8-7.2-4.8-6.4-9.6l10.4-51.2c0.8-4 4.8-7.2 9.6-6.4 4 0.8 7.2 4.8 6.4 9.6l-10.4 51.2c-0.8 4-4 6.4-8 6.4zM916.8 144c-4 0-7.2-2.4-8-6.4-0.8-4 1.6-8.8 6.4-9.6l51.2-10.4c4-0.8 8.8 1.6 9.6 6.4 0.8 4-1.6 8.8-6.4 9.6l-51.2 10.4h-1.6z" fill="#A03513" p-id="2229"></path><path d="M540.8 348.8c-3.2 0-6.4-2.4-7.2-5.6-3.2-8-7.2-12.8-13.6-14.4-8-1.6-15.2 1.6-17.6 4-3.2 3.2-8 3.2-11.2 0-3.2-3.2-3.2-8 0-11.2 6.4-6.4 20-11.2 32.8-8.8 8 1.6 19.2 8 25.6 24.8 1.6 4-0.8 8.8-4.8 10.4-1.6 0.8-3.2 0.8-4 0.8zM727.2 400c-4 0-8-3.2-8-7.2-0.8-8.8-4.8-19.2-20.8-18.4-4.8 0-8-3.2-8-8s3.2-8 8-8c25.6-0.8 36 16.8 37.6 33.6-0.8 4-4 8-8.8 8zM643.2 348.8c-3.2 0-6.4-1.6-7.2-4.8-2.4-6.4-8.8-9.6-19.2-9.6-4.8 0-8-3.2-8-8s3.2-8 8-8c17.6 0 29.6 7.2 34.4 20 1.6 4-0.8 8.8-4.8 10.4h-3.2zM380.8 388c-3.2 0-6.4-2.4-8-5.6-4-16-20-14.4-22.4-14.4-4.8 0.8-8-2.4-8.8-7.2-0.8-4 2.4-8 7.2-8.8 11.2-1.6 33.6 2.4 39.2 25.6 0.8 4-1.6 8.8-5.6 9.6 0 0.8-0.8 0.8-1.6 0.8zM328 422.4c-3.2 0-6.4-2.4-7.2-5.6-4-12-12-15.2-17.6-16-8.8-0.8-17.6 2.4-22.4 9.6-2.4 4-7.2 4.8-11.2 1.6-4-2.4-4.8-7.2-1.6-11.2 8-11.2 23.2-17.6 37.6-16 14.4 2.4 25.6 12 30.4 27.2 1.6 4-0.8 8.8-4.8 10.4-1.6-0.8-2.4 0-3.2 0zM812.8 465.6c-4 0-7.2-2.4-8-6.4-2.4-10.4-14.4-14.4-20-13.6-4.8 0.8-8-2.4-8.8-7.2-0.8-4 2.4-8 7.2-8.8 12.8-1.6 33.6 6.4 37.6 26.4 0.8 4-1.6 8.8-6.4 9.6h-1.6zM588 460.8c-4.8 0-8-3.2-8-8 0-4-3.2-7.2-4.8-8.8-4.8-4-12-5.6-16.8-4.8-4 0.8-8.8-1.6-9.6-5.6-0.8-4 1.6-8.8 6.4-9.6 9.6-2.4 21.6 0.8 30.4 8 7.2 5.6 11.2 12.8 11.2 20.8-0.8 4.8-4 8-8.8 8z" fill="#FFFFFF" p-id="2230"></path><path d="M728.8 224m-52 0a52 52 0 1 0 104 0 52 52 0 1 0-104 0Z" fill="#FBD000" p-id="2231"></path><path d="M728.8 252c-24.8 0-44.8-16.8-50.4-40-0.8 4-1.6 8-1.6 12 0 28.8 23.2 52 52 52s52-23.2 52-52c0-4-0.8-8-1.6-12-5.6 23.2-26.4 40-50.4 40z" fill="#F4B10B" p-id="2232"></path><path d="M728.8 287.2c-35.2 0-63.2-28.8-63.2-63.2s28.8-63.2 63.2-63.2S792 188.8 792 224s-28.8 63.2-63.2 63.2zM728 176.8c-26.4 0-48 21.6-48 48s21.6 48 48 48 48-21.6 48-48c0-27.2-21.6-48-48-48z" fill="#663210" p-id="2233"></path><path d="M821.6 178.4c0-3.2-3.2-6.4-8-7.2l-38.4-6.4c-4-0.8-8.8-4.8-9.6-9.6l-6.4-38.4c-0.8-4-4-8-7.2-8s-6.4 3.2-7.2 8l-6.4 38.4c-0.8 4-4.8 8.8-9.6 9.6l-38.4 6.4c-4 0.8-8 4-8 7.2s3.2 6.4 8 7.2l37.6 4.8c4 0.8 8.8 4.8 9.6 8.8l7.2 40c0.8 4 4 8 7.2 8s6.4-3.2 7.2-8l7.2-40.8c0.8-4 4.8-8 9.6-8.8l37.6-4.8c4 0 8-3.2 8-6.4zM488.8 340.8c0-3.2-3.2-6.4-8-7.2l-15.2-2.4c-4-0.8-8.8-4.8-8.8-8.8l-2.4-15.2c-0.8-4-4-8-7.2-8s-6.4 3.2-7.2 8l-2.4 15.2c-0.8 4-4.8 8.8-8.8 8.8l-15.2 2.4c-4 0.8-8 4-8 7.2s3.2 6.4 8 7.2l15.2 2.4c4 0.8 8.8 4.8 8.8 8.8l2.4 15.2c0.8 4 4 8 7.2 8s6.4-3.2 6.4-8l2.4-16.8c0.8-4 4.8-8 8.8-8.8l14.4-0.8c6.4-0.8 9.6-4 9.6-7.2zM712.8 432c0-3.2-3.2-6.4-8-7.2l-15.2-2.4c-4-0.8-8.8-4.8-8.8-8.8l-2.4-15.2c-0.8-4-4-8-7.2-8s-6.4 3.2-7.2 8l-2.4 15.2c-0.8 4-4.8 8.8-8.8 8.8l-15.2 2.4c-4 0.8-8 4-8 7.2s3.2 6.4 8 7.2l15.2 2.4c4 0.8 8.8 4.8 8.8 8.8l2.4 15.2c0.8 4 4 8 7.2 8s6.4-3.2 6.4-8l2.4-16.8c0.8-4 4.8-8 8.8-8.8l14.4-0.8c6.4-1.6 9.6-4 9.6-7.2z" fill="#FFFFFF" p-id="2234"></path></svg>