<svg width="666" height="593" viewBox="0 0 666 593" fill="none" xmlns="http://www.w3.org/2000/svg">
<circle cx="44" cy="10" r="10" fill="#2F2E41"/>
<circle cx="78" cy="10" r="10" fill="#2F2E41"/>
<circle cx="112" cy="10" r="10" fill="#2F2E41"/>
<circle cx="146" cy="10" r="10" fill="#2F2E41"/>
<circle cx="180" cy="10" r="10" fill="#2F2E41"/>
<circle cx="214" cy="10" r="10" fill="#2F2E41"/>
<circle cx="248" cy="10" r="10" fill="#2F2E41"/>
<circle cx="282" cy="10" r="10" fill="#2F2E41"/>
<circle cx="316" cy="10" r="10" fill="#2F2E41"/>
<circle cx="44" cy="262" r="10" fill="#2F2E41"/>
<circle cx="78" cy="262" r="10" fill="#2F2E41"/>
<circle cx="112" cy="262" r="10" fill="#2F2E41"/>
<circle cx="146" cy="262" r="10" fill="#2F2E41"/>
<circle cx="180" cy="262" r="10" fill="#2F2E41"/>
<circle cx="214" cy="262" r="10" fill="#2F2E41"/>
<circle cx="248" cy="262" r="10" fill="#2F2E41"/>
<circle cx="282" cy="262" r="10" fill="#2F2E41"/>
<circle cx="316" cy="262" r="10" fill="#2F2E41"/>
<circle cx="44" cy="226" r="10" fill="#2F2E41"/>
<circle cx="78" cy="226" r="10" fill="#2F2E41"/>
<circle cx="112" cy="226" r="10" fill="#2F2E41"/>
<circle cx="146" cy="226" r="10" fill="#2F2E41"/>
<circle cx="180" cy="226" r="10" fill="#2F2E41"/>
<circle cx="214" cy="226" r="10" fill="#2F2E41"/>
<circle cx="248" cy="226" r="10" fill="#2F2E41"/>
<circle cx="282" cy="226" r="10" fill="#2F2E41"/>
<circle cx="316" cy="226" r="10" fill="#2F2E41"/>
<circle cx="44" cy="190" r="10" fill="#2F2E41"/>
<circle cx="78" cy="190" r="10" fill="#2F2E41"/>
<circle cx="112" cy="190" r="10" fill="#2F2E41"/>
<circle cx="146" cy="190" r="10" fill="#2F2E41"/>
<circle cx="180" cy="190" r="10" fill="#2F2E41"/>
<circle cx="214" cy="190" r="10" fill="#2F2E41"/>
<circle cx="248" cy="190" r="10" fill="#2F2E41"/>
<circle cx="282" cy="190" r="10" fill="#2F2E41"/>
<circle cx="316" cy="190" r="10" fill="#2F2E41"/>
<circle cx="44" cy="154" r="10" fill="#2F2E41"/>
<circle cx="78" cy="154" r="10" fill="#2F2E41"/>
<circle cx="112" cy="154" r="10" fill="#2F2E41"/>
<circle cx="146" cy="154" r="10" fill="#2F2E41"/>
<circle cx="180" cy="154" r="10" fill="#2F2E41"/>
<circle cx="214" cy="154" r="10" fill="#2F2E41"/>
<circle cx="248" cy="154" r="10" fill="#2F2E41"/>
<circle cx="282" cy="154" r="10" fill="#2F2E41"/>
<circle cx="316" cy="154" r="10" fill="#2F2E41"/>
<circle cx="44" cy="118" r="10" fill="#2F2E41"/>
<circle cx="78" cy="118" r="10" fill="#2F2E41"/>
<circle cx="112" cy="118" r="10" fill="#2F2E41"/>
<circle cx="146" cy="118" r="10" fill="#2F2E41"/>
<circle cx="180" cy="118" r="10" fill="#2F2E41"/>
<circle cx="214" cy="118" r="10" fill="#2F2E41"/>
<circle cx="248" cy="118" r="10" fill="#2F2E41"/>
<circle cx="282" cy="118" r="10" fill="#2F2E41"/>
<circle cx="316" cy="118" r="10" fill="#2F2E41"/>
<circle cx="44" cy="46" r="10" fill="#2F2E41"/>
<circle cx="78" cy="46" r="10" fill="#2F2E41"/>
<circle cx="112" cy="46" r="10" fill="#2F2E41"/>
<circle cx="146" cy="46" r="10" fill="#2F2E41"/>
<circle cx="180" cy="46" r="10" fill="#2F2E41"/>
<circle cx="214" cy="46" r="10" fill="#2F2E41"/>
<circle cx="248" cy="46" r="10" fill="#2F2E41"/>
<circle cx="282" cy="46" r="10" fill="#2F2E41"/>
<circle cx="316" cy="46" r="10" fill="#2F2E41"/>
<circle cx="44" cy="82" r="10" fill="#2F2E41"/>
<circle cx="78" cy="82" r="10" fill="#2F2E41"/>
<circle cx="112" cy="82" r="10" fill="#2F2E41"/>
<circle cx="146" cy="82" r="10" fill="#2F2E41"/>
<circle cx="180" cy="82" r="10" fill="#2F2E41"/>
<circle cx="214" cy="82" r="10" fill="#2F2E41"/>
<circle cx="248" cy="82" r="10" fill="#2F2E41"/>
<circle cx="282" cy="82" r="10" fill="#2F2E41"/>
<circle cx="316" cy="82" r="10" fill="#2F2E41"/>
<circle cx="546" cy="473" r="120" fill="#D6974D" fill-opacity="0.21"/>
<g clip-path="url(#clip0)">
<path d="M562.947 111.806H106.622C106.61 111.058 106.296 110.345 105.749 109.82C105.201 109.295 104.465 109 103.697 109H85.7243C84.9566 109 84.2197 109.295 83.6724 109.82C83.1252 110.345 82.8114 111.058 82.7987 111.806H78.3974C78.3845 111.058 78.0707 110.345 77.5235 109.82C76.9763 109.295 76.2394 109 75.4718 109H57.4992C56.7315 109 55.9947 109.295 55.4475 109.82C54.9003 110.345 54.5865 111.058 54.5736 111.806H38.5593C29.2658 111.817 20.3558 115.42 13.7842 121.827C7.21262 128.233 3.51604 136.919 3.50545 145.979V146.316C3.4505 146.313 3.39783 146.3 3.34173 146.3H2.93075C2.54588 146.3 2.16477 146.374 1.80919 146.517C1.45361 146.661 1.13052 146.871 0.858374 147.137C0.586227 147.402 0.370348 147.717 0.223068 148.063C0.0757886 148.41 -1.08371e-05 148.782 1.16212e-09 149.157V182.577C-1.08371e-05 182.952 0.0757886 183.323 0.223068 183.67C0.370348 184.017 0.586227 184.332 0.858374 184.597C1.13052 184.862 1.45361 185.073 1.80919 185.216C2.16477 185.36 2.54588 185.434 2.93075 185.434H3.34173C3.39785 185.434 3.4505 185.421 3.50545 185.418V498.827C3.51604 507.887 7.21262 516.573 13.7842 522.98C20.3558 529.386 29.2658 532.99 38.5593 533H562.947C572.24 532.99 581.15 529.386 587.722 522.98C594.293 516.573 597.99 507.887 598 498.827V145.979C597.99 136.919 594.293 128.233 587.722 121.827C581.15 115.42 572.24 111.817 562.947 111.806ZM587.449 498.827C587.442 505.16 584.858 511.232 580.265 515.71C575.671 520.188 569.443 522.707 562.947 522.714H38.5593C32.063 522.707 25.8348 520.188 21.2412 515.71C16.6476 511.232 14.0636 505.16 14.0561 498.827V145.979C14.0636 139.646 16.6476 133.575 21.2412 129.096C25.8348 124.618 32.063 122.099 38.5593 122.092H562.947C569.443 122.099 575.671 124.618 580.265 129.097C584.858 133.575 587.442 139.646 587.449 145.979V498.827Z" fill="#CCCCCC"/>
<path d="M562.946 528.429H38.5591C30.5088 528.42 22.7908 525.298 17.0984 519.749C11.4059 514.199 8.20392 506.675 8.19482 498.827V145.979C8.20391 138.131 11.4059 130.607 17.0984 125.058C22.7908 119.508 30.5088 116.387 38.5591 116.378H562.946C570.997 116.387 578.715 119.508 584.407 125.058C590.1 130.607 593.302 138.131 593.311 145.979V498.827C593.302 506.675 590.1 514.199 584.407 519.749C578.715 525.298 570.997 528.42 562.946 528.429Z" fill="#E6E6E6"/>
<path d="M563.107 504.581H38.3989C36.627 504.579 34.9283 503.892 33.6754 502.671C32.4225 501.449 31.7178 499.793 31.7158 498.066V146.74C31.7178 145.013 32.4226 143.357 33.6755 142.135C34.9283 140.914 36.627 140.227 38.3989 140.225H563.107C564.879 140.227 566.578 140.914 567.831 142.135C569.083 143.357 569.788 145.013 569.79 146.74V498.066C569.788 499.793 569.084 501.449 567.831 502.671C566.578 503.892 564.879 504.579 563.107 504.581Z" fill="white"/>
<path d="M20.0711 324.237C21.4568 324.237 22.58 323.142 22.58 321.792C22.58 320.441 21.4568 319.346 20.0711 319.346C18.6855 319.346 17.5623 320.441 17.5623 321.792C17.5623 323.142 18.6855 324.237 20.0711 324.237Z" fill="white"/>
<path d="M228.982 186.713H117.515C108.771 186.723 100.388 190.113 94.2048 196.141C88.0219 202.169 84.544 210.341 84.5341 218.866V228.688C84.3053 228.627 84.065 228.618 83.8322 228.662C83.5993 228.707 83.3804 228.804 83.1925 228.945C83.0047 229.087 82.8531 229.269 82.7498 229.477C82.6464 229.685 82.5941 229.914 82.597 230.145V237.699C82.5941 237.93 82.6464 238.159 82.7498 238.367C82.8531 238.575 83.0047 238.757 83.1925 238.898C83.3804 239.04 83.5993 239.137 83.8322 239.181C84.065 239.226 84.3053 239.217 84.5341 239.156V250.593C84.3053 250.531 84.065 250.523 83.8322 250.567C83.5993 250.612 83.3803 250.709 83.1925 250.85C83.0046 250.992 82.8531 251.173 82.7497 251.382C82.6464 251.59 82.5941 251.819 82.597 252.05V270.934C82.5941 271.165 82.6464 271.394 82.7497 271.602C82.8531 271.81 83.0046 271.992 83.1925 272.134C83.3803 272.275 83.5993 272.372 83.8322 272.416C84.065 272.461 84.3053 272.452 84.5341 272.391V279.296C84.3053 279.234 84.065 279.226 83.8322 279.27C83.5993 279.315 83.3803 279.412 83.1925 279.553C83.0046 279.694 82.8531 279.876 82.7497 280.085C82.6464 280.293 82.5941 280.522 82.597 280.753V299.637C82.5941 299.868 82.6464 300.097 82.7497 300.305C82.853 300.513 83.0046 300.695 83.1925 300.836C83.3803 300.978 83.5993 301.075 83.8322 301.119C84.065 301.164 84.3053 301.155 84.5341 301.094V500.507C84.544 509.031 88.0219 517.203 94.2048 523.231C100.388 529.259 108.771 532.649 117.515 532.659H228.982C237.726 532.649 246.109 529.259 252.292 523.231C258.475 517.203 261.953 509.031 261.963 500.507V218.866C261.953 210.341 258.475 202.169 252.292 196.141C246.109 190.113 237.726 186.723 228.982 186.713ZM254.99 500.507C254.982 507.229 252.239 513.673 247.364 518.426C242.488 523.18 235.877 525.853 228.982 525.861H117.515C110.62 525.853 104.009 523.18 99.1333 518.426C94.2576 513.673 91.515 507.229 91.5072 500.507V218.866C91.515 212.144 94.2576 205.699 99.1333 200.946C104.009 196.193 110.62 193.519 117.515 193.511H228.982C235.877 193.519 242.488 196.193 247.364 200.946C252.239 205.699 254.982 212.144 254.99 218.866V500.507Z" fill="#CCCCCC"/>
<path d="M228.982 529.638H117.515C109.593 529.629 101.997 526.557 96.3954 521.096C90.7934 515.634 87.6423 508.23 87.6333 500.507V218.866C87.6423 211.142 90.7934 203.738 96.3953 198.277C101.997 192.815 109.593 189.743 117.515 189.734H228.982C236.904 189.743 244.5 192.815 250.102 198.277C255.704 203.738 258.855 211.142 258.864 218.866V500.507C258.855 508.23 255.704 515.634 250.102 521.096C244.5 526.557 236.904 529.629 228.982 529.638Z" fill="#E6E6E6"/>
<path d="M231.737 525.106H114.76C109.417 525.1 104.294 523.028 100.516 519.345C96.7379 515.661 94.6125 510.667 94.6064 505.458V213.914C94.6125 208.705 96.7378 203.711 100.516 200.028C104.294 196.344 109.417 194.273 114.76 194.267H130.015C130.899 194.268 131.745 194.61 132.37 195.219C132.994 195.828 133.345 196.653 133.346 197.514C133.349 200.057 134.387 202.496 136.232 204.294C138.077 206.093 140.578 207.105 143.187 207.107H201.76C204.369 207.105 206.871 206.093 208.716 204.294C210.56 202.496 211.598 200.057 211.601 197.514C211.602 196.653 211.953 195.828 212.578 195.219C213.202 194.61 214.049 194.268 214.932 194.267H231.737C237.08 194.273 242.203 196.344 245.981 200.028C249.759 203.711 251.884 208.705 251.891 213.914V505.458C251.884 510.667 249.759 515.661 245.981 519.344C242.203 523.028 237.08 525.1 231.737 525.106Z" fill="white"/>
<path d="M178.285 200.876H164.338C163.927 200.876 163.533 200.717 163.242 200.433C162.952 200.15 162.789 199.766 162.789 199.365C162.789 198.965 162.952 198.58 163.242 198.297C163.533 198.014 163.927 197.854 164.338 197.854H178.285C178.695 197.855 179.088 198.015 179.378 198.298C179.668 198.581 179.831 198.965 179.831 199.365C179.831 199.765 179.668 200.149 179.378 200.432C179.088 200.715 178.695 200.875 178.285 200.876Z" fill="white"/>
<path d="M187.97 200.498C188.398 200.498 188.744 200.16 188.744 199.743C188.744 199.326 188.398 198.987 187.97 198.987C187.542 198.987 187.195 199.326 187.195 199.743C187.195 200.16 187.542 200.498 187.97 200.498Z" fill="white"/>
<path d="M188.755 271.869L188.917 275.384C207.345 274.579 228.684 276.144 251.395 279.839V276.276C228.65 272.609 207.262 271.061 188.755 271.869Z" fill="#CCCCCC"/>
<path d="M165.841 340.7C165.698 342.044 165.581 343.398 165.491 344.759C165.301 347.436 165.206 350.134 165.206 352.853C165.22 378.17 173.616 402.807 189.145 423.099C204.674 443.391 226.506 458.255 251.396 465.481V240.204C228.539 246.828 208.21 259.912 192.982 277.8C177.753 295.688 168.308 317.578 165.841 340.7Z" fill="#D6974D"/>
<path d="M105.698 272.595C107.01 272.595 108.074 271.558 108.074 270.279C108.074 269 107.01 267.963 105.698 267.963C104.386 267.963 103.323 269 103.323 270.279C103.323 271.558 104.386 272.595 105.698 272.595Z" fill="#CCCCCC"/>
<path d="M100.634 365.506C103.227 365.506 105.328 363.458 105.328 360.931C105.328 358.404 103.227 356.355 100.634 356.355C98.0424 356.355 95.9412 358.404 95.9412 360.931C95.9412 363.458 98.0424 365.506 100.634 365.506Z" fill="#CCCCCC"/>
<path d="M189.018 244.414C190.896 244.414 192.417 242.931 192.417 241.101C192.417 239.27 190.896 237.787 189.018 237.787C187.141 237.787 185.619 239.27 185.619 241.101C185.619 242.931 187.141 244.414 189.018 244.414Z" fill="#CCCCCC"/>
<path d="M111.682 428.198C113.18 428.198 114.394 427.014 114.394 425.554C114.394 424.094 113.18 422.91 111.682 422.91C110.185 422.91 108.97 424.094 108.97 425.554C108.97 427.014 110.185 428.198 111.682 428.198Z" fill="#CCCCCC"/>
<path d="M166.462 465.216C168.084 465.216 169.399 463.934 169.399 462.353C169.399 460.772 168.084 459.49 166.462 459.49C164.84 459.49 163.525 460.772 163.525 462.353C163.525 463.934 164.84 465.216 166.462 465.216Z" fill="#CCCCCC"/>
<path d="M251.84 174.063H246.044V168.413H242.934V174.063H237.136V177.097H242.934V182.747H246.044V177.097H251.84V174.063Z" fill="#CCCCCC"/>
<path opacity="0.1" d="M209.733 342.98C215.326 342.98 219.861 338.56 219.861 333.107C219.861 327.654 215.326 323.234 209.733 323.234C204.14 323.234 199.606 327.654 199.606 333.107C199.606 338.56 204.14 342.98 209.733 342.98Z" fill="black"/>
<path opacity="0.1" d="M214.797 412.539C220.39 412.539 224.924 408.119 224.924 402.667C224.924 397.214 220.39 392.794 214.797 392.794C209.204 392.794 204.669 397.214 204.669 402.667C204.669 408.119 209.204 412.539 214.797 412.539Z" fill="black"/>
<path d="M170.118 340.77C157.691 332.635 148.435 324.609 142.607 316.915C136.793 309.24 134.72 302.307 136.445 296.307C138.17 290.308 143.637 285.435 152.696 281.824C161.777 278.204 173.963 276.037 188.916 275.384L188.755 271.87C156.735 273.268 136.923 281.61 132.971 295.358C129.018 309.106 141.496 326.27 168.107 343.69C189.807 357.896 218.872 371.015 251.396 381.405V377.702C219.64 367.472 191.304 354.639 170.118 340.77Z" fill="#CCCCCC"/>
<path opacity="0.1" d="M170.117 343.584C168.648 342.621 167.223 341.66 165.841 340.7C165.698 342.044 165.581 343.398 165.491 344.759C166.347 345.342 167.219 345.923 168.107 346.504C189.808 360.71 218.872 373.829 251.395 384.219V380.516C219.641 370.285 191.306 357.453 170.117 343.584Z" fill="black"/>
<path d="M304.509 286.926C290.317 283.048 276.25 279.89 262.601 277.459V281.034C275.934 283.43 289.671 286.525 303.535 290.314C347.675 302.375 387.617 319.952 413.118 338.537L415.279 335.72C389.435 316.884 349.061 299.1 304.509 286.926Z" fill="#CCCCCC"/>
<path d="M410.471 352.853C410.46 335.16 406.352 317.697 398.455 301.767C390.558 285.836 379.074 271.849 364.86 260.847C350.646 249.846 334.069 242.114 316.363 238.228C298.657 234.341 280.28 234.401 262.601 238.402V467.296C289.182 473.328 317.076 470.39 341.722 458.964C366.368 447.537 386.309 428.298 398.285 404.39C398.907 403.154 399.505 401.907 400.079 400.647C406.952 385.606 410.493 369.32 410.471 352.853L410.471 352.853Z" fill="#D6974D"/>
<path d="M293.143 214.174C293.906 214.174 294.524 213.572 294.524 212.828C294.524 212.084 293.906 211.482 293.143 211.482C292.38 211.482 291.762 212.084 291.762 212.828C291.762 213.572 292.38 214.174 293.143 214.174Z" fill="#F2F2F2"/>
<path d="M386.59 223.955C388.318 223.955 389.718 222.59 389.718 220.906C389.718 219.222 388.318 217.856 386.59 217.856C384.863 217.856 383.462 219.222 383.462 220.906C383.462 222.59 384.863 223.955 386.59 223.955Z" fill="#CCCCCC"/>
<path d="M497.53 352.419C500.335 352.419 502.609 350.202 502.609 347.468C502.609 344.733 500.335 342.517 497.53 342.517C494.725 342.517 492.451 344.733 492.451 347.468C492.451 350.202 494.725 352.419 497.53 352.419Z" fill="#CCCCCC"/>
<path d="M457.818 270.515C459.021 270.515 459.997 269.564 459.997 268.391C459.997 267.218 459.021 266.267 457.818 266.267C456.614 266.267 455.639 267.218 455.639 268.391C455.639 269.564 456.614 270.515 457.818 270.515Z" fill="#CCCCCC"/>
<path d="M450.191 339.553C451.395 339.553 452.37 338.602 452.37 337.428C452.37 336.255 451.395 335.304 450.191 335.304C448.988 335.304 448.012 336.255 448.012 337.428C448.012 338.602 448.988 339.553 450.191 339.553Z" fill="#CCCCCC"/>
<path d="M390.516 479.792H386.875V476.245H384.923V479.792H381.284V481.696H384.923V485.244H386.875V481.696H390.516V479.792Z" fill="#CCCCCC"/>
<path d="M474.512 461.633H471.792V458.981H470.33V461.633H467.61V463.057H470.33V465.709H471.792V463.057H474.512V461.633Z" fill="#CCCCCC"/>
<path opacity="0.1" d="M291.762 270.728C297.355 270.728 301.889 266.308 301.889 260.855C301.889 255.402 297.355 250.982 291.762 250.982C286.169 250.982 281.635 255.402 281.635 260.855C281.635 266.308 286.169 270.728 291.762 270.728Z" fill="black"/>
<path opacity="0.1" d="M291.762 358.238C297.355 358.238 301.889 353.818 301.889 348.365C301.889 342.913 297.355 338.492 291.762 338.492C286.169 338.492 281.635 342.913 281.635 348.365C281.635 353.818 286.169 358.238 291.762 358.238Z" fill="black"/>
<path opacity="0.1" d="M346.081 305.283C351.674 305.283 356.208 300.863 356.208 295.41C356.208 289.958 351.674 285.537 346.081 285.537C340.488 285.537 335.954 289.958 335.954 295.41C335.954 300.863 340.488 305.283 346.081 305.283Z" fill="black"/>
<path opacity="0.1" d="M379.685 372.15C385.279 372.15 389.813 367.73 389.813 362.277C389.813 356.824 385.279 352.404 379.685 352.404C374.092 352.404 369.558 356.824 369.558 362.277C369.558 367.73 374.092 372.15 379.685 372.15Z" fill="black"/>
<path d="M438.028 357.798C433.272 350.684 425.618 343.256 415.279 335.72L413.118 338.537C433.211 353.181 442.57 367.179 439.473 377.952C437.749 383.952 432.281 388.824 423.222 392.435C414.141 396.055 401.955 398.222 387.001 398.875C383.824 399.014 380.564 399.083 377.221 399.083C347.963 399.083 312.685 393.801 276.616 383.946C271.886 382.653 267.215 381.302 262.601 379.89V383.574C266.898 384.875 271.245 386.128 275.642 387.333C312.026 397.275 347.645 402.601 377.239 402.6C380.627 402.6 383.941 402.53 387.163 402.39C419.184 400.99 438.995 392.649 442.948 378.901C444.781 372.525 443.126 365.424 438.028 357.798Z" fill="#CCCCCC"/>
<path opacity="0.1" d="M387.002 401.688C383.826 401.827 380.565 401.896 377.221 401.896C347.965 401.896 312.683 396.616 276.615 386.76C271.886 385.467 267.214 384.116 262.601 382.704V386.388C266.897 387.69 271.244 388.943 275.641 390.147C312.026 400.088 347.644 405.414 377.239 405.414C380.627 405.414 383.943 405.343 387.165 405.203C391.057 405.034 394.764 404.763 398.285 404.39C398.908 403.154 399.505 401.907 400.079 400.647C395.987 401.137 391.628 401.484 387.002 401.688Z" fill="black"/>
<path d="M346.041 267.095C353.334 267.095 359.245 261.331 359.245 254.222C359.245 247.113 353.334 241.349 346.041 241.349C338.748 241.349 332.836 247.113 332.836 254.222C332.836 261.331 338.748 267.095 346.041 267.095Z" fill="white"/>
<path d="M346.081 235.275C341.075 235.275 336.275 237.214 332.735 240.664C329.196 244.115 327.208 248.795 327.208 253.675C327.208 263.836 346.081 297.205 346.081 297.205C346.081 297.205 364.955 263.836 364.955 253.675C364.955 248.795 362.966 244.115 359.427 240.664C355.887 237.214 351.087 235.275 346.081 235.275ZM346.081 262.65C344.351 262.65 342.66 262.15 341.222 261.213C339.784 260.276 338.663 258.944 338.001 257.386C337.339 255.828 337.165 254.114 337.503 252.46C337.84 250.806 338.673 249.287 339.896 248.094C341.12 246.902 342.678 246.09 344.375 245.761C346.071 245.432 347.83 245.6 349.428 246.246C351.026 246.891 352.392 247.984 353.353 249.386C354.314 250.788 354.827 252.437 354.827 254.123C354.827 256.385 353.906 258.554 352.266 260.153C350.625 261.752 348.401 262.65 346.081 262.65Z" fill="#3F3D56"/>
<path d="M291.572 313.759C298.865 313.759 304.777 307.996 304.777 300.886C304.777 293.777 298.865 288.013 291.572 288.013C284.28 288.013 278.368 293.777 278.368 300.886C278.368 307.996 284.28 313.759 291.572 313.759Z" fill="white"/>
<path d="M291.613 281.939C286.607 281.939 281.806 283.878 278.267 287.328C274.727 290.779 272.739 295.459 272.739 300.339C272.739 310.501 291.613 343.87 291.613 343.87C291.613 343.87 310.486 310.501 310.486 300.339C310.486 295.459 308.498 290.779 304.958 287.328C301.419 283.878 296.618 281.939 291.613 281.939ZM291.613 309.314C289.883 309.314 288.192 308.814 286.753 307.877C285.315 306.94 284.194 305.609 283.532 304.051C282.87 302.493 282.697 300.778 283.034 299.124C283.372 297.47 284.205 295.951 285.428 294.758C286.651 293.566 288.21 292.754 289.906 292.425C291.603 292.096 293.361 292.265 294.96 292.91C296.558 293.555 297.924 294.648 298.885 296.05C299.846 297.453 300.359 299.101 300.359 300.788C300.359 303.049 299.437 305.218 297.797 306.817C296.157 308.416 293.932 309.314 291.613 309.314Z" fill="#3F3D56"/>
<path d="M291.572 230.89C298.865 230.89 304.777 225.127 304.777 218.017C304.777 210.908 298.865 205.144 291.572 205.144C284.28 205.144 278.368 210.908 278.368 218.017C278.368 225.127 284.28 230.89 291.572 230.89Z" fill="white"/>
<path d="M291.613 199.07C286.607 199.07 281.806 201.009 278.267 204.459C274.727 207.91 272.739 212.59 272.739 217.47C272.739 227.631 291.613 261 291.613 261C291.613 261 310.486 227.631 310.486 217.47C310.486 212.59 308.498 207.91 304.958 204.459C301.419 201.009 296.618 199.07 291.613 199.07ZM291.613 226.445C289.883 226.445 288.192 225.945 286.753 225.008C285.315 224.071 284.194 222.739 283.532 221.181C282.87 219.623 282.697 217.909 283.034 216.255C283.372 214.601 284.205 213.082 285.428 211.889C286.651 210.697 288.21 209.885 289.906 209.556C291.603 209.227 293.361 209.395 294.96 210.041C296.558 210.686 297.924 211.779 298.885 213.181C299.846 214.583 300.359 216.232 300.359 217.918C300.359 219.038 300.133 220.147 299.693 221.181C299.254 222.216 298.609 223.156 297.797 223.948C296.985 224.739 296.021 225.368 294.96 225.796C293.898 226.225 292.761 226.445 291.613 226.445Z" fill="#CCCCCC"/>
<path d="M379.877 330.655C387.17 330.655 393.082 324.891 393.082 317.782C393.082 310.672 387.17 304.909 379.877 304.909C372.585 304.909 366.673 310.672 366.673 317.782C366.673 324.891 372.585 330.655 379.877 330.655Z" fill="white"/>
<path d="M379.917 298.835C374.912 298.835 370.111 300.773 366.572 304.224C363.032 307.675 361.044 312.355 361.044 317.234C361.044 327.396 379.917 360.765 379.917 360.765C379.917 360.765 398.791 327.396 398.791 317.234C398.791 312.355 396.803 307.675 393.263 304.224C389.724 300.773 384.923 298.835 379.917 298.835ZM379.917 326.21C378.188 326.21 376.497 325.71 375.058 324.773C373.62 323.836 372.499 322.504 371.837 320.946C371.175 319.388 371.002 317.674 371.339 316.02C371.677 314.366 372.51 312.846 373.733 311.654C374.956 310.461 376.515 309.649 378.211 309.32C379.908 308.991 381.666 309.16 383.265 309.806C384.863 310.451 386.229 311.544 387.19 312.946C388.151 314.348 388.664 315.997 388.664 317.683C388.664 319.945 387.742 322.113 386.102 323.712C384.462 325.311 382.237 326.21 379.917 326.21Z" fill="#CCCCCC"/>
<path d="M209.87 301.691C217.162 301.691 223.074 295.927 223.074 288.818C223.074 281.708 217.162 275.945 209.87 275.945C202.577 275.945 196.665 281.708 196.665 288.818C196.665 295.927 202.577 301.691 209.87 301.691Z" fill="white"/>
<path d="M209.91 269.871C204.904 269.871 200.104 271.809 196.564 275.26C193.025 278.711 191.036 283.391 191.036 288.27C191.036 298.432 209.91 331.801 209.91 331.801C209.91 331.801 228.783 298.432 228.783 288.27C228.783 283.391 226.795 278.711 223.256 275.26C219.716 271.809 214.915 269.871 209.91 269.871ZM209.91 297.246C208.18 297.246 206.489 296.746 205.051 295.809C203.612 294.872 202.491 293.54 201.829 291.982C201.167 290.424 200.994 288.71 201.332 287.056C201.669 285.402 202.502 283.882 203.725 282.69C204.949 281.497 206.507 280.685 208.204 280.356C209.9 280.027 211.659 280.196 213.257 280.842C214.855 281.487 216.221 282.58 217.182 283.982C218.143 285.384 218.656 287.033 218.656 288.719C218.656 290.981 217.735 293.149 216.095 294.748C214.454 296.348 212.23 297.246 209.91 297.246Z" fill="#CCCCCC"/>
<path d="M214.821 371.687C222.114 371.687 228.026 365.924 228.026 358.814C228.026 351.705 222.114 345.941 214.821 345.941C207.529 345.941 201.617 351.705 201.617 358.814C201.617 365.924 207.529 371.687 214.821 371.687Z" fill="white"/>
<path d="M214.862 339.867C209.856 339.867 205.055 341.806 201.516 345.256C197.976 348.707 195.988 353.387 195.988 358.267C195.988 368.428 214.862 401.797 214.862 401.797C214.862 401.797 233.735 368.428 233.735 358.267C233.735 353.387 231.747 348.707 228.207 345.256C224.668 341.806 219.867 339.867 214.862 339.867ZM214.862 367.242C213.132 367.242 211.441 366.742 210.002 365.805C208.564 364.868 207.443 363.536 206.781 361.978C206.119 360.42 205.946 358.706 206.283 357.052C206.621 355.398 207.454 353.879 208.677 352.686C209.9 351.494 211.459 350.682 213.155 350.353C214.852 350.024 216.61 350.192 218.209 350.838C219.807 351.483 221.173 352.576 222.134 353.978C223.095 355.38 223.608 357.029 223.608 358.715C223.608 360.977 222.686 363.146 221.046 364.745C219.406 366.344 217.181 367.242 214.862 367.242Z" fill="#3F3D56"/>
</g>
<defs>
<clipPath id="clip0">
<rect width="598" height="424" fill="white" transform="translate(0 109)"/>
</clipPath>
</defs>
</svg>
